<svg width="170" height="40" viewBox="0 0 170 40" fill="none" xmlns="http://www.w3.org/2000/svg">
<path d="M0 30.699H17.4881V25.2199H5.72654V18.7028H17.4881V13.3073H5.72654V7.12119H17.4881V1.64209H0V30.699Z" fill="#1A256C"/>
<path d="M50.8994 12.5165C49.3216 10.4149 47.1074 9.36084 44.257 9.36084C41.4066 9.36084 38.9032 10.3988 36.9108 12.4748C34.9184 14.5507 33.9222 17.0541 33.9222 19.988C33.9222 22.922 34.912 25.4607 36.8883 27.5206C38.8679 29.5837 41.323 30.612 44.257 30.612C47.191 30.612 49.3216 29.5612 50.8994 27.4563V29.6962C50.8994 31.3287 50.4142 32.5884 49.4469 33.4721C48.4796 34.359 47.1492 34.7993 45.4621 34.7993C42.888 34.7993 41.0756 33.8288 40.0248 31.8943L35.4583 34.5101C36.371 36.1715 37.6789 37.428 39.3821 38.286C41.0852 39.144 43.0552 39.5714 45.2982 39.5714C48.2868 39.5714 50.8384 38.7263 52.9561 37.0391C55.0738 35.352 56.1311 32.9033 56.1311 29.693V9.94249H50.9026V12.5165H50.8994ZM49.2605 24.0757C48.1679 25.1426 46.7764 25.6728 45.0893 25.6728C43.4022 25.6728 42.0107 25.1394 40.9181 24.0757C39.8255 23.012 39.2792 21.6462 39.2792 19.988C39.2792 18.3299 39.8255 17.0059 40.9181 15.9422C42.0107 14.8785 43.4022 14.3451 45.0893 14.3451C46.7764 14.3451 48.1679 14.8785 49.2605 15.9422C50.3531 17.0091 50.8994 18.3556 50.8994 19.988C50.8994 21.6205 50.3531 23.012 49.2605 24.0757Z" fill="#1A256C"/>
<path d="M137.935 12.3912C136.332 10.3731 134.076 9.36084 131.171 9.36084C128.266 9.36084 126.029 10.4181 124.053 12.5358C122.073 14.6536 121.087 17.2469 121.087 20.319C121.087 23.3912 122.076 25.9845 124.053 28.1023C126.032 30.22 128.404 31.2772 131.171 31.2772C134.076 31.2772 136.332 30.2682 137.935 28.2469V30.6956H143.289V9.94249H137.935V12.3912ZM136.296 24.532C135.204 25.6246 133.825 26.1709 132.167 26.1709C130.509 26.1709 129.137 25.6246 128.057 24.532C126.977 23.4394 126.437 22.0351 126.437 20.319C126.437 18.603 126.977 17.1987 128.057 16.1061C129.137 15.0135 130.506 14.4672 132.167 14.4672C133.828 14.4672 135.204 15.0135 136.296 16.1061C137.389 17.1987 137.935 18.603 137.935 20.319C137.935 22.0351 137.389 23.4394 136.296 24.532Z" fill="#1A256C"/>
<path d="M167.034 12.5392C165.054 10.4215 162.67 9.36425 159.874 9.36425C157.078 9.36425 154.726 10.3733 153.151 12.3946V1.64209H147.797V30.6958H153.151V28.2471C154.729 30.2684 156.969 31.2774 159.874 31.2774C162.779 31.2774 165.054 30.2202 167.034 28.1025C169.013 25.9847 170 23.3914 170 20.3192C170 17.2471 169.01 14.6538 167.034 12.536V12.5392ZM163.007 24.5354C161.915 25.628 160.536 26.1743 158.878 26.1743C157.22 26.1743 155.847 25.628 154.768 24.5354C153.688 23.4428 153.148 22.0385 153.148 20.3225C153.148 18.6064 153.688 17.2021 154.768 16.1095C155.847 15.0169 157.216 14.4706 158.878 14.4706C160.539 14.4706 161.915 15.0169 163.007 16.1095C164.1 17.2021 164.646 18.6064 164.646 20.3225C164.646 22.0385 164.1 23.4428 163.007 24.5354Z" fill="#1A256C"/>
<path d="M35.9757 9.36426H32.0745C24.9372 9.36426 21.2673 12.7931 21.1034 19.6894V30.699H26.5471V19.6091C26.5471 16.5048 28.0382 14.9301 31.0236 14.9301H32.023C32.669 13.2366 33.6555 11.6877 34.9891 10.2994C35.3073 9.96841 35.6351 9.65669 35.9725 9.36426H35.9757Z" fill="#1A256C"/>
<path d="M118.342 25.2199H108.509V1.64209H102.782V30.6958H121.7C121.633 30.6251 121.565 30.5608 121.498 30.4901C120.042 28.9316 118.988 27.1673 118.342 25.2167V25.2199Z" fill="#1A256C"/>
<path d="M79.4358 0C73.8378 0 69.1107 1.92813 65.2512 5.7876C61.3918 9.64707 59.4636 14.3742 59.4636 19.9722C59.4636 25.5702 61.3918 30.2973 65.2512 34.1568C69.1107 38.0131 73.8378 39.9444 79.4358 39.9444C85.0338 39.9444 89.7738 38.0163 93.659 34.1568C97.541 30.2973 99.4852 25.5702 99.4852 19.9722C99.4852 14.3742 97.5442 9.64707 93.659 5.7876C89.7738 1.93134 85.0338 0 79.4358 0ZM89.9345 30.4323C89.4075 30.9529 88.8612 31.4285 88.2924 31.8527C86.4317 33.2474 83.8223 32.9774 82.2798 31.2389C82.2605 31.2132 82.238 31.1907 82.2156 31.1618C80.7148 29.449 78.2372 29.4393 76.7365 31.1554C76.7075 31.1907 76.6722 31.2293 76.6433 31.2614C75.0975 32.9967 72.4881 33.2538 70.6307 31.8591C70.0587 31.4317 69.5092 30.9561 68.9822 30.4291C66.1382 27.5819 64.7146 24.0952 64.7146 19.969C64.7146 15.8428 66.1382 12.3561 68.9822 9.50889C70.0394 8.45485 71.1834 7.59683 72.4142 6.93484C72.4271 6.92841 72.4399 6.92199 72.4528 6.91556C74.8951 5.61086 77.5527 6.76131 77.8612 10.068C78.0379 11.9769 78.1086 14.551 78.43 16.659C78.6132 17.8673 80.3324 17.8673 80.5156 16.659C80.8337 14.5638 80.9044 11.9994 81.0812 10.097C81.3865 6.79666 84.0441 5.63014 86.4767 6.93484C87.7139 7.60004 88.8644 8.45806 89.9281 9.51211C92.7913 12.3593 94.2246 15.846 94.2246 19.9722C94.2246 24.0984 92.7913 27.5851 89.9281 30.4323H89.9345Z" fill="#1A256C"/>
<path d="M17.4882 1.64189V7.11777H5.72656V5.31176C5.72656 3.28401 7.37511 1.63867 9.40286 1.63867H17.4882V1.64189Z" fill="#1A256C"/>
<path d="M5.72656 25.2161H17.4882V30.6952H9.40286C7.37511 30.6952 5.72656 29.0531 5.72656 27.0221V25.2129V25.2161Z" fill="#1A256C"/>
<path d="M21.1034 20.8399V30.6959H26.5471V19.6059C26.5471 16.5016 28.0382 14.927 31.0236 14.927C31.0236 14.927 21.1034 14.612 21.1034 20.8399Z" fill="#1A256C"/>
<path d="M44.2603 30.6153C47.1107 30.6153 49.3249 29.5644 50.9027 27.4595V19.988C50.9027 21.6495 50.3564 23.012 49.2638 24.0757C48.1712 25.1426 46.7797 25.6728 45.0926 25.6728C43.4055 25.6728 42.014 25.1394 40.9214 24.0757C39.8288 23.012 39.2825 21.6462 39.2825 19.988C39.2825 18.3299 39.8288 17.0059 40.9214 15.9422C42.014 14.8785 43.4055 14.3451 45.0926 14.3451C46.7797 14.3451 48.1712 14.8785 49.2638 15.9422C50.3564 17.0091 50.9027 18.3556 50.9027 19.988V12.5165C49.3249 10.4149 47.1107 9.36084 44.2603 9.36084C41.4099 9.36084 38.9065 10.3988 36.9141 12.4748C34.9217 14.5507 33.9255 17.0541 33.9255 19.988C33.9255 22.922 34.9153 25.4607 36.8916 27.5206C38.8712 29.5837 41.3263 30.612 44.2603 30.612V30.6153Z" fill="#1A256C"/>
<path d="M167.034 28.1023C169.013 25.9845 170 23.3912 170 20.319C170 17.2469 169.01 14.6536 167.034 12.5358C165.054 10.4181 162.67 9.36084 159.874 9.36084C157.078 9.36084 154.726 10.3699 153.151 12.3912V20.319C153.151 18.603 153.691 17.1987 154.771 16.1061C155.851 15.0135 157.22 14.4672 158.881 14.4672C160.543 14.4672 161.918 15.0135 163.011 16.1061C164.103 17.1987 164.649 18.603 164.649 20.319C164.649 22.0351 164.103 23.4394 163.011 24.532C161.918 25.6246 160.539 26.1709 158.881 26.1709C157.223 26.1709 155.851 25.6246 154.771 24.532C153.691 23.4394 153.151 22.0351 153.151 20.319V28.2469C154.729 30.2682 156.969 31.2772 159.874 31.2772C162.779 31.2772 165.054 30.22 167.034 28.1023Z" fill="#1A256C"/>
<path d="M137.935 20.319C137.935 22.0351 137.389 23.4394 136.296 24.532C135.204 25.6246 133.825 26.1709 132.167 26.1709C130.509 26.1709 129.137 25.6246 128.057 24.532C126.977 23.4394 126.437 22.0351 126.437 20.319C126.437 18.603 126.977 17.1987 128.057 16.1061C129.137 15.0135 130.506 14.4672 132.167 14.4672C133.828 14.4672 135.204 15.0135 136.296 16.1061C137.389 17.1987 137.935 18.603 137.935 20.319V12.3912C136.332 10.3731 134.076 9.36084 131.171 9.36084C128.266 9.36084 126.029 10.4181 124.053 12.5358C122.073 14.6536 121.087 17.2469 121.087 20.319C121.087 23.3912 122.076 25.9845 124.053 28.1023C126.032 30.22 128.404 31.2772 131.171 31.2772C134.076 31.2772 136.332 30.2682 137.935 28.2469V20.319Z" fill="#1A256C"/>
<path d="M121.697 30.6954H112.448C110.273 30.6954 108.509 28.9344 108.509 26.7588V25.2163H118.345C118.988 27.1669 120.042 28.9312 121.501 30.4897C121.569 30.5637 121.633 30.6311 121.7 30.6954H121.697Z" fill="#1A256C"/>
<path d="M77.858 10.0258C77.5334 6.748 74.8855 5.61683 72.456 6.91831C72.4432 6.92153 72.4303 6.92795 72.4174 6.93438C71.1867 7.59959 70.0394 8.4576 68.9822 9.51165C66.1382 12.3589 64.7146 15.8456 64.7146 19.9718C64.7146 24.0979 66.1382 27.5846 68.9822 30.4319C69.5092 30.9589 70.0587 31.4345 70.6339 31.8619C71.1031 32.2154 71.6237 32.4596 72.1571 32.6074L69.4481 37.3924C67.9506 36.5312 66.5495 35.4578 65.2512 34.1564C61.3918 30.3001 59.4636 25.5698 59.4636 19.9718C59.4636 14.3737 61.3918 9.64662 65.2512 5.78714C65.2544 5.78072 65.2609 5.7775 65.2641 5.77429C66.2796 4.75881 67.6003 4.10324 69.0175 3.87187C77.1606 2.54789 77.8194 9.43131 77.858 10.0258Z" fill="#1A256C"/>
<path d="M63.6798 32.3956C71.6815 39.5458 76.7365 31.1552 76.7365 31.1552C76.7075 31.1905 76.6722 31.2291 76.6433 31.2612C75.0975 32.9966 72.4881 33.2536 70.6307 31.859C70.0587 31.4316 69.5092 30.956 68.9822 30.4289C66.1382 27.5817 64.7146 24.095 64.7146 19.9688C64.7146 15.8426 66.1382 12.3559 68.9822 9.50873C69.1943 9.29663 69.4128 9.10061 69.6313 8.90458L67.054 4.18066C66.4338 4.67234 65.8297 5.20579 65.2512 5.78744C61.3918 9.64691 59.4636 14.374 59.4636 19.972C59.4636 24.7474 60.8712 28.8864 63.6798 32.3956Z" fill="#1A256C"/>
<path d="M81.0874 10.0258C81.412 6.748 84.0599 5.61683 86.4894 6.91831C86.5022 6.92153 86.5151 6.92795 86.5279 6.93438C87.7587 7.59959 88.906 8.4576 89.9632 9.51165C92.8072 12.3589 94.2308 15.8456 94.2308 19.9718C94.2308 24.0979 92.8072 27.5846 89.9632 30.4319C89.4362 30.9589 88.8867 31.4345 88.3115 31.8619C87.8423 32.2154 87.3217 32.4596 86.7882 32.6074L89.4973 37.3924C90.9948 36.5312 92.3959 35.4578 93.6942 34.1564C97.5536 30.3001 99.4818 25.5698 99.4818 19.9718C99.4818 14.3737 97.5536 9.64662 93.6942 5.78714C93.6909 5.78072 93.6845 5.7775 93.6813 5.77429C92.6658 4.75881 91.3451 4.10324 89.9279 3.87187C81.7847 2.54789 81.126 9.43131 81.0874 10.0258Z" fill="#1A256C"/>
<path d="M95.2658 32.3956C87.264 39.5458 82.2091 31.1552 82.2091 31.1552C82.238 31.1905 82.2734 31.2291 82.3023 31.2612C83.848 32.9966 86.4574 33.2536 88.3148 31.859C88.8869 31.4316 89.4364 30.956 89.9634 30.4289C92.8074 27.5817 94.231 24.095 94.231 19.9688C94.231 15.8394 92.8074 12.3559 89.9634 9.50873C89.7513 9.29663 89.5328 9.10061 89.3143 8.90458L91.8915 4.18066C92.5117 4.67234 93.1159 5.20579 93.6943 5.78744C97.5538 9.64691 99.4819 14.374 99.4819 19.972C99.4819 24.7474 98.0744 28.8864 95.2658 32.3956Z" fill="#1A256C"/>
</svg>
