<svg width="14" height="14" viewBox="0 0 14 14" fill="none" xmlns="http://www.w3.org/2000/svg">
<g clip-path="url(#clip0_42_402)">
<path d="M2.72 5.84C3.81 7.97 5.54 9.7 7.66 10.78L9.31 9.13C9.51 8.93 9.81 8.86 10.08 8.95C10.94 9.23 11.85 9.38 12.76 9.38C13.17 9.38 13.51 9.72 13.51 10.13V12.75C13.51 13.16 13.17 13.5 12.76 13.5C5.71 13.5 0 7.79 0 0.75C0 0.34 0.34 0 0.75 0H3.37C3.78 0 4.12 0.34 4.12 0.75C4.12 1.66 4.26 2.56 4.55 3.43C4.64 3.7 4.56 4 4.36 4.2L2.71 5.85L2.72 5.84Z" fill="#1A256C"/>
</g>
<defs>
<clipPath id="clip0_42_402">
<rect width="13.5" height="13.5" fill="white"/>
</clipPath>
</defs>
</svg>
