<svg width="22" height="22" viewBox="0 0 22 22" fill="none" xmlns="http://www.w3.org/2000/svg">
<g clip-path="url(#clip0_77_2543)">
<path d="M20.0292 11.7079L21.8538 9.60684L19.6421 7.92046L20.4439 5.25266L17.7346 4.61681L17.389 1.85225L14.6521 2.37752L13.2146 0L10.9338 1.58962L8.65303 0L7.21546 2.37752L4.47855 1.85225L4.13298 4.61681L1.42372 5.25266L2.22544 7.92046L0.0137939 9.60684L1.8384 11.7079L0.497591 14.1407L3.01334 15.3295L2.77835 18.1078L5.55673 18.1631L6.46903 20.7895L9.04007 19.7113L10.9476 21.7432L12.8552 19.7113L15.4124 20.7895L16.3247 18.1631L19.1031 18.1078L18.8681 15.3295L21.3838 14.1407L20.0292 11.7079ZM8.74979 15.91L5.01764 12.1779L6.34463 10.8509L8.74979 13.2561L16.0759 5.92997L17.4029 7.25696L8.74979 15.91Z" fill="#5CCB4A"/>
</g>
<defs>
<clipPath id="clip0_77_2543">
<rect width="21.84" height="21.7294" fill="white"/>
</clipPath>
</defs>
</svg>
