<svg width="39" height="39" viewBox="0 0 39 39" fill="none" xmlns="http://www.w3.org/2000/svg">
<path d="M19.5 0C23.3567 0 27.1269 1.14365 30.3336 3.28634C33.5404 5.42903 36.0397 8.47451 37.5156 12.0377C38.9916 15.6008 39.3777 19.5216 38.6253 23.3043C37.8729 27.0869 36.0157 30.5615 33.2886 33.2886C30.5615 36.0157 27.0869 37.8729 23.3043 38.6253C19.5216 39.3777 15.6008 38.9916 12.0377 37.5156C8.47451 36.0397 5.42903 33.5404 3.28634 30.3336C1.14365 27.1269 0 23.3567 0 19.5C0 14.3283 2.05446 9.36838 5.71142 5.71142C9.36838 2.05446 14.3283 0 19.5 0ZM11.8511 24.8511L14.1489 27.1489L19.5 21.7977L24.8511 27.1489L27.1489 24.8511L21.7977 19.5L27.1489 14.1489L24.8511 11.8511L19.5 17.2022L14.1489 11.8511L11.8511 14.1489L17.2022 19.5L11.8511 24.8511Z" fill="#FF0000"/>
</svg>
