<svg width="65" height="65" viewBox="0 0 65 65" fill="none" xmlns="http://www.w3.org/2000/svg">
<path d="M32.5 0L38.2855 7.15187L46.6012 3.21851L48.7107 12.1724L57.9095 12.2366L55.9252 21.219L64.1852 25.2681L58.5 32.5L64.1852 39.7319L55.9252 43.781L57.9095 52.7634L48.7107 52.8276L46.6012 61.7815L38.2855 57.8481L32.5 65L26.7145 57.8481L18.3988 61.7815L16.2893 52.8276L7.09048 52.7634L9.07481 43.781L0.814842 39.7319L6.5 32.5L0.814842 25.2681L9.07481 21.219L7.09048 12.2366L16.2893 12.1724L18.3988 3.21851L26.7145 7.15187L32.5 0Z" fill="#5CCB4A"/>
</svg>
