<svg width="24" height="24" viewBox="0 0 24 24" fill="none" xmlns="http://www.w3.org/2000/svg">
<g clip-path="url(#clip0_149_316)">
<path d="M11.75 22.1268C17.481 22.1268 22.1269 17.4809 22.1269 11.7499C22.1269 6.01893 17.481 1.37305 11.75 1.37305C6.01906 1.37305 1.37317 6.01893 1.37317 11.7499C1.37317 17.4809 6.01906 22.1268 11.75 22.1268Z" fill="#D8E5FF"/>
<path d="M11.0536 12.4663C11.0536 14.2023 10.2591 15.1439 8.58197 15.1439C6.99307 15.1439 6.16919 14.2023 6.16919 12.5546V12.2897H7.69924V12.6624C7.69924 13.398 8.02291 13.6825 8.53293 13.6825C9.10179 13.6825 9.43526 13.398 9.43526 12.4172V10.5439H9.40584C9.13121 11.1324 8.66043 11.4463 7.93464 11.4463C6.73806 11.4463 6.13977 10.6126 6.13977 9.09233V7.20919C6.13977 5.56144 7.00288 4.61987 8.59177 4.61987C10.1807 4.61987 11.0438 5.56144 11.0438 7.20919V12.4761L11.0536 12.4663ZM9.43526 8.95502V7.1013C9.43526 6.3657 9.1116 6.10088 8.60158 6.10088C8.09157 6.10088 7.75809 6.3657 7.75809 7.1013V8.95502C7.75809 9.69062 8.08176 9.96524 8.60158 9.96524C9.12141 9.96524 9.43526 9.69062 9.43526 8.95502Z" fill="#1A256C"/>
<path d="M12.1324 7.19918C12.1324 5.55143 12.9956 4.60986 14.5844 4.60986C16.1733 4.60986 17.0365 5.55143 17.0365 7.19918V12.5544C17.0365 14.2021 16.1733 15.1437 14.5844 15.1437C12.9956 15.1437 12.1324 14.2021 12.1324 12.5544V7.19918ZM13.7508 12.6524C13.7508 13.388 14.0744 13.6725 14.5943 13.6725C15.1141 13.6725 15.4279 13.388 15.4279 12.6524V7.09129C15.4279 6.35569 15.1043 6.08107 14.5943 6.08107C14.0842 6.08107 13.7508 6.35569 13.7508 7.09129V12.6524Z" fill="#1A256C"/>
<path d="M7.37561 15.8105H8.39564C9.04297 15.8105 9.35683 16.1734 9.35683 16.8306V18.9099C9.35683 19.567 9.04297 19.9299 8.39564 19.9299H7.37561V15.8105ZM8.02294 16.399V19.3414H8.38584C8.5918 19.3414 8.71931 19.2335 8.71931 18.9393V16.8012C8.71931 16.5069 8.5918 16.399 8.38584 16.399H8.02294Z" fill="#1A256C"/>
<path d="M11.9265 19.9299H11.2694L11.1615 19.1845H10.3671L10.2592 19.9299H9.66089L10.318 15.8105H11.2596L11.9167 19.9299H11.9265ZM10.4553 18.6254H11.0831L10.779 16.5461H10.7692L10.4651 18.6254H10.4553Z" fill="#1A256C"/>
<path d="M12.6032 18.5666L11.7892 15.8105H12.4659L12.9563 17.6839H12.9661L13.4565 15.8105H14.0745L13.2604 18.5666V19.9299H12.6131V18.5666H12.6032Z" fill="#1A256C"/>
<path d="M15.2122 15.7712C15.8399 15.7712 16.1635 16.1439 16.1635 16.8109V16.9384H15.5554V16.7717C15.5554 16.4774 15.4377 16.3695 15.2318 16.3695C15.0258 16.3695 14.9081 16.4774 14.9081 16.7717C14.9081 17.0659 15.0356 17.2915 15.4574 17.6642C15.9968 18.1448 16.1733 18.4783 16.1733 18.949C16.1733 19.6062 15.8399 19.9887 15.2122 19.9887C14.5844 19.9887 14.251 19.616 14.251 18.949V18.694H14.8591V18.9883C14.8591 19.2825 14.9866 19.3904 15.1925 19.3904C15.3985 19.3904 15.526 19.2825 15.526 18.9883C15.526 18.694 15.3985 18.4684 14.9768 18.0957C14.4373 17.6151 14.2608 17.2817 14.2608 16.8109C14.2608 16.1538 14.5844 15.7712 15.2122 15.7712Z" fill="#1A256C"/>
<path d="M11.75 23.5C5.2669 23.5 0 18.2233 0 11.75C0 5.27671 5.2669 0 11.75 0C18.2331 0 23.5 5.2669 23.5 11.75C23.5 18.2331 18.2331 23.5 11.75 23.5ZM11.75 0.784641C5.69846 0.784641 0.784641 5.69846 0.784641 11.75C0.784641 17.8015 5.69846 22.7154 11.75 22.7154C17.8015 22.7154 22.7154 17.8015 22.7154 11.75C22.7154 5.69846 17.7917 0.784641 11.75 0.784641Z" fill="#1A256C"/>
</g>
<defs>
<clipPath id="clip0_149_316">
<rect width="23.5" height="23.5" fill="white"/>
</clipPath>
</defs>
</svg>
