<svg width="24" height="24" viewBox="0 0 24 24" fill="none" xmlns="http://www.w3.org/2000/svg">
<circle cx="11.6222" cy="11.9127" r="6.68274" fill="#D8E5FF"/>
<path d="M23.25 11.75C23.25 18.1013 18.1013 23.25 11.75 23.25C5.39873 23.25 0.25 18.1013 0.25 11.75C0.25 5.39873 5.39873 0.25 11.75 0.25C18.1013 0.25 23.25 5.39873 23.25 11.75Z" stroke="#1A256C" stroke-width="0.5"/>
<path d="M14.3692 11.223C14.3187 11.1419 14.2052 10.9932 14.1926 10.9865C12.2813 8.78378 11.8019 7.49324 11.7009 7.15541C11.6694 7.06081 11.5874 7 11.4928 7C11.3982 7 11.3162 7.06081 11.2909 7.15541C11.19 7.5 10.7169 8.78379 8.79297 11C8.79297 11 8.67943 11.1487 8.62897 11.2297C8.14956 11.9459 7.93509 12.8176 8.0171 13.6959C8.0991 14.5541 8.45865 15.3243 9.00744 15.9054C9.55624 16.4865 10.2817 16.8784 11.1017 16.973C11.2342 16.9865 11.3729 17 11.5054 17C12.3696 17 13.1833 16.6757 13.833 16.0676C14.5711 15.3716 15 14.3784 15 13.3378C15 12.5811 14.7792 11.8581 14.3692 11.2365V11.223ZM11.2089 15.9392C10.0609 15.8041 9.10837 14.7973 8.99483 13.5878L9.37331 13.5473C9.46793 14.5676 10.2753 15.4257 11.2531 15.5405L11.2089 15.9392Z" fill="#1B2A6B"/>
<path d="M9.06236 21.5852C8.8706 21.5358 8.73113 21.4486 8.64397 21.3266C8.55971 21.2046 8.53937 21.0535 8.58876 20.8704C8.63815 20.6903 8.72823 20.5654 8.86188 20.4985C8.99554 20.4317 9.16115 20.4259 9.35582 20.4782L9.80037 20.5944L10.027 19.7344L10.3117 19.8099L9.79165 21.777L9.06236 21.5852ZM9.35292 20.7164C9.22507 20.6816 9.11757 20.6816 9.0304 20.7164C8.94614 20.7513 8.88803 20.8269 8.85607 20.9431C8.82411 21.0622 8.83864 21.1581 8.90256 21.2249C8.96648 21.2917 9.06527 21.344 9.20764 21.3818L9.57083 21.4777L9.74517 20.821L9.35582 20.7194L9.35292 20.7164Z" fill="#1B2A6B"/>
<path d="M7.79859 20.2313C7.73176 20.304 7.65331 20.3505 7.56905 20.3708C7.48189 20.3911 7.38891 20.3766 7.29012 20.3301C7.24944 20.3098 7.21458 20.2894 7.18262 20.2662L7.28141 20.0599C7.30756 20.0802 7.33952 20.1006 7.37438 20.118C7.4354 20.1471 7.49642 20.1616 7.55743 20.1587C7.61845 20.1558 7.67656 20.1442 7.72886 20.1209C7.78406 20.0977 7.83346 20.0599 7.87704 20.0134C7.92062 19.9669 7.9584 19.9146 7.98745 19.8536L8.31868 19.1592L8.57437 19.2812L7.93806 20.6178L7.68528 20.4986L7.81021 20.24H7.8015L7.79859 20.2313Z" fill="#1B2A6B"/>
<path d="M6.13069 19.6126C6.04352 19.5486 5.97379 19.4789 5.92149 19.4004C5.86919 19.322 5.83723 19.2377 5.82561 19.1477C5.81399 19.0576 5.8227 18.9646 5.84885 18.8687C5.87791 18.7729 5.9244 18.6741 5.99413 18.5782C6.06386 18.4794 6.13941 18.4038 6.22367 18.3457C6.30502 18.2876 6.39219 18.2528 6.47935 18.2353C6.56943 18.2179 6.6595 18.2208 6.74957 18.244C6.83964 18.2673 6.92971 18.3109 7.01978 18.3748C7.10695 18.4358 7.17668 18.5084 7.22898 18.5869C7.28128 18.6653 7.31324 18.7496 7.32487 18.8397C7.33649 18.9298 7.33068 19.0227 7.30162 19.1186C7.27547 19.2145 7.22608 19.3104 7.15634 19.4092C7.08661 19.508 7.01107 19.5835 6.92681 19.6416C6.84255 19.6997 6.75829 19.7375 6.66821 19.7549C6.57814 19.7724 6.48807 19.7695 6.398 19.7462C6.30793 19.723 6.21786 19.6794 6.13069 19.6184V19.6126ZM6.88903 18.552C6.83964 18.5172 6.78444 18.491 6.72632 18.4823C6.66821 18.4707 6.6101 18.4736 6.55199 18.4881C6.49388 18.5026 6.43577 18.5317 6.37766 18.5724C6.31955 18.613 6.26725 18.6683 6.21786 18.738C6.16846 18.8077 6.13069 18.8775 6.11035 18.9443C6.09001 19.0111 6.0813 19.075 6.08711 19.136C6.09292 19.1971 6.10745 19.2523 6.1365 19.3017C6.16556 19.3511 6.20623 19.3946 6.25563 19.4324C6.35732 19.505 6.47064 19.5283 6.58976 19.4992C6.70889 19.4702 6.8193 19.383 6.921 19.2436C7.02269 19.1041 7.06627 18.9704 7.05465 18.8484C7.04303 18.7264 6.98782 18.6276 6.88613 18.5549L6.88903 18.552Z" fill="#1B2A6B"/>
<path d="M4.6111 18.2642C4.52684 18.1683 4.47454 18.0695 4.4571 17.9678C4.43967 17.8662 4.4571 17.7645 4.50359 17.6599L3.86728 18.2235L3.67261 18.0056L5.1922 16.6545L5.37816 16.8637L5.16024 17.0584L5.16605 17.0642C5.26484 17.0265 5.36654 17.0264 5.47404 17.0584C5.57864 17.0933 5.67162 17.1543 5.75588 17.2473C5.81399 17.3112 5.85176 17.3809 5.87501 17.4623C5.89825 17.5407 5.90406 17.6221 5.89244 17.7063C5.88082 17.7906 5.84886 17.8749 5.79946 17.962C5.75007 18.0492 5.68033 18.1306 5.59317 18.209C5.5031 18.2875 5.41303 18.3485 5.32295 18.3891C5.23288 18.4269 5.14281 18.4502 5.05855 18.4531C4.97429 18.456 4.89293 18.4414 4.81739 18.4095C4.74185 18.3775 4.67502 18.3281 4.614 18.2613L4.6111 18.2642ZM5.51472 17.3257C5.43046 17.2298 5.32586 17.1863 5.20383 17.1921C5.08179 17.1979 4.95686 17.256 4.83482 17.3635C4.7157 17.471 4.64306 17.5843 4.62272 17.7093C4.60238 17.8342 4.63434 17.9417 4.7186 18.0376C4.80577 18.1335 4.91037 18.1799 5.0324 18.1741C5.15443 18.1683 5.27646 18.1102 5.4014 17.9998C5.52344 17.8894 5.59607 17.7761 5.61641 17.654C5.63675 17.532 5.60479 17.4245 5.51762 17.3286L5.51472 17.3257Z" fill="#1B2A6B"/>
<path d="M2.97522 15.8119L4.274 15.0972L4.40765 15.3412L4.12 15.501C4.18974 15.4923 4.25366 15.4923 4.31177 15.501C4.36988 15.5098 4.42218 15.533 4.46867 15.5621C4.51516 15.5911 4.55583 15.6231 4.5907 15.6637C4.62557 15.7044 4.65462 15.7451 4.68077 15.7887C4.76213 15.9369 4.78537 16.0763 4.74469 16.2042C4.70402 16.332 4.59361 16.4453 4.41346 16.547L3.62316 16.9829L3.48659 16.733L4.23913 16.3175C4.36407 16.2507 4.43961 16.1722 4.47157 16.088C4.50353 16.0037 4.48901 15.9049 4.42799 15.7916C4.39893 15.7393 4.36116 15.6986 4.31758 15.6667C4.27109 15.6376 4.2217 15.6173 4.16649 15.6085C4.11129 15.5998 4.05027 15.6027 3.98925 15.6144C3.92533 15.6289 3.86141 15.6521 3.79749 15.687L3.1205 16.0589L2.98103 15.8061L2.97522 15.8119Z" fill="#1B2A6B"/>
<path d="M3.71042 14.0453C3.68427 13.9553 3.63778 13.8826 3.57676 13.8332C3.51575 13.7838 3.4373 13.7606 3.35013 13.7664L3.27168 13.502C3.42567 13.4817 3.55933 13.5136 3.67265 13.6008C3.78596 13.6851 3.87022 13.8158 3.91962 13.9901C3.98063 14.1993 3.9661 14.3853 3.87313 14.5422C3.78306 14.6991 3.62035 14.8124 3.385 14.8821C3.15255 14.949 2.95498 14.9432 2.79227 14.8589C2.62956 14.7746 2.51624 14.6294 2.45522 14.4202C2.42907 14.3359 2.41745 14.2516 2.42036 14.1761C2.42036 14.0976 2.43489 14.025 2.46104 13.9611C2.48719 13.8943 2.52496 13.8361 2.57435 13.7838C2.62375 13.7315 2.68186 13.6909 2.75159 13.6589L2.82713 13.9175C2.75159 13.9611 2.69929 14.0221 2.66733 14.1005C2.63827 14.179 2.63537 14.2633 2.66152 14.3533C2.69638 14.4754 2.77193 14.5625 2.88524 14.609C2.99856 14.6555 3.13803 14.6555 3.30074 14.609C3.46345 14.5625 3.57967 14.487 3.6494 14.3853C3.71913 14.2836 3.73657 14.1732 3.7017 14.0482L3.71042 14.0453Z" fill="#1B2A6B"/>
<path d="M3.39365 12.3195C3.39365 12.2992 3.38784 12.2789 3.38494 12.2585C3.38203 12.2382 3.37622 12.2179 3.37041 12.1888L3.57961 12.1685C3.58832 12.1946 3.59414 12.2208 3.60285 12.2411C3.60866 12.2643 3.61447 12.2876 3.61738 12.3166C3.629 12.3922 3.629 12.4619 3.61738 12.5171C3.60576 12.5723 3.58542 12.6246 3.55055 12.6624C3.51569 12.7031 3.4692 12.735 3.40818 12.7612C3.34717 12.7844 3.26872 12.8019 3.17574 12.8135L2.3709 12.8948L2.39415 13.1389L2.19657 13.1592L2.17042 12.9094L1.80432 12.9471L1.77527 12.6653L2.14137 12.6275L2.11231 12.3341L2.30989 12.3137L2.33894 12.6043L3.18155 12.52C3.26 12.5113 3.3152 12.4939 3.34717 12.4648C3.37913 12.4358 3.39365 12.3864 3.39075 12.3137L3.39365 12.3195Z" fill="#1B2A6B"/>
<path d="M1.81311 9.43726L3.80631 9.84403L3.7482 10.1317L2.02812 9.78011L2.1211 10.3176L1.87704 10.2682L1.76953 9.66098L1.81602 9.43726H1.81311Z" fill="#1B2A6B"/>
<path d="M3.00731 8.82411C2.85913 8.76019 2.73129 8.68174 2.62959 8.59457C2.5279 8.50741 2.44945 8.41443 2.39715 8.31274C2.34485 8.21104 2.3187 8.10644 2.3158 7.99603C2.3158 7.88562 2.33613 7.77521 2.38553 7.6619C2.43492 7.54858 2.49885 7.45851 2.58311 7.38587C2.66446 7.31323 2.76034 7.26384 2.87075 7.23478C2.98116 7.20573 3.10029 7.19991 3.23395 7.21444C3.3676 7.23188 3.50997 7.26965 3.65816 7.33647C3.80634 7.4033 3.93418 7.47885 4.03588 7.56601C4.14047 7.65318 4.21892 7.74616 4.27122 7.84785C4.32643 7.94664 4.35258 8.05124 4.35839 8.16165C4.3613 8.27206 4.33805 8.38247 4.29156 8.49578C4.24217 8.6091 4.17534 8.69917 4.09399 8.77472C4.00973 8.84736 3.91384 8.89965 3.80343 8.92871C3.69302 8.95777 3.57099 8.96358 3.43733 8.94905C3.30368 8.93162 3.16131 8.89094 3.01313 8.82702L3.00731 8.82411ZM3.53612 7.6125C3.29787 7.5079 3.10029 7.47304 2.93758 7.505C2.77778 7.53696 2.66737 7.62122 2.60344 7.76359C2.54243 7.90305 2.55405 8.04252 2.64122 8.18199C2.72838 8.32145 2.88819 8.44349 3.12644 8.54518C3.3676 8.64978 3.56808 8.68755 3.73079 8.65559C3.8935 8.62363 4.00391 8.53937 4.06493 8.3999C4.12595 8.26044 4.11432 8.12097 4.02716 7.9815C3.93999 7.84204 3.77728 7.72001 3.53322 7.61541L3.53612 7.6125Z" fill="#1B2A6B"/>
<path d="M3.97191 6.7987C3.84407 6.69991 3.73947 6.59532 3.66102 6.48491C3.58257 6.37449 3.53027 6.26699 3.50412 6.15658C3.47797 6.04617 3.47797 5.93576 3.50122 5.83116C3.52446 5.72365 3.57386 5.62196 3.6494 5.52608C3.72494 5.43019 3.8092 5.35465 3.90799 5.30526C4.00388 5.25586 4.11138 5.22971 4.22179 5.22681C4.33511 5.22681 4.45423 5.24715 4.57917 5.29363C4.70411 5.34303 4.83195 5.41567 4.9598 5.51445C5.08764 5.61324 5.19224 5.71784 5.27069 5.82825C5.34914 5.93866 5.40435 6.04907 5.4305 6.15658C5.45955 6.26699 5.45955 6.37449 5.43921 6.482C5.41597 6.5895 5.36657 6.6912 5.29393 6.78999C5.21839 6.88587 5.13413 6.96141 5.03244 7.01081C4.93365 7.06311 4.82614 7.08926 4.71283 7.08926C4.59951 7.08926 4.48038 7.06892 4.35254 7.01952C4.2247 6.97013 4.09685 6.89749 3.96901 6.7987H3.97191ZM4.77675 5.7498C4.57046 5.5929 4.38741 5.50864 4.22179 5.49993C4.05617 5.49121 3.93124 5.54932 3.83535 5.66845C3.74238 5.79048 3.71913 5.92704 3.77143 6.08394C3.82083 6.24084 3.94867 6.39774 4.15496 6.55464C4.36416 6.71444 4.55012 6.7987 4.71573 6.81033C4.88135 6.81904 5.00919 6.76384 5.10217 6.6418C5.19515 6.51977 5.21549 6.38031 5.16609 6.22631C5.1167 6.07232 4.98595 5.91251 4.77675 5.7498Z" fill="#1B2A6B"/>
<path d="M5.72972 4.07078C5.7733 4.12599 5.80235 4.18119 5.81979 4.2393C5.83722 4.29741 5.84303 4.35262 5.83722 4.40782C5.83141 4.46303 5.81398 4.51533 5.78492 4.56182C5.75587 4.60831 5.71809 4.65189 5.67161 4.68966C5.62512 4.72743 5.57282 4.75068 5.52052 4.76521C5.46531 4.77973 5.41301 4.78264 5.35781 4.77392C5.3026 4.76521 5.2503 4.74487 5.20091 4.71291C5.14861 4.68094 5.10212 4.63736 5.06144 4.58216C5.01786 4.52405 4.9859 4.46884 4.96846 4.41073C4.95103 4.35262 4.94522 4.29741 4.95103 4.24221C4.95684 4.187 4.97428 4.13761 5.00043 4.08821C5.02658 4.03882 5.06725 3.99814 5.11374 3.96037C5.16023 3.9226 5.21253 3.89935 5.26773 3.88192C5.32294 3.86739 5.37524 3.86449 5.43045 3.8732C5.48565 3.88192 5.53795 3.90226 5.59025 3.93422C5.64255 3.96618 5.68904 4.00977 5.73262 4.06788L5.72972 4.07078ZM5.22996 4.45431C5.27645 4.51533 5.32875 4.5502 5.38396 4.56472C5.44207 4.57925 5.49437 4.56472 5.54667 4.52695C5.59606 4.48918 5.62221 4.43978 5.62512 4.38167C5.62512 4.32356 5.60478 4.26255 5.55829 4.20444C5.5118 4.14342 5.4595 4.10565 5.40139 4.09403C5.34618 4.0824 5.29098 4.09403 5.24159 4.1347C5.18929 4.17538 5.16314 4.22187 5.16023 4.27707C5.16023 4.33228 5.18057 4.3933 5.22996 4.45431ZM6.12196 3.21655L6.40961 5.56132L6.19751 5.72403L5.90986 3.37926L6.11906 3.21946L6.12196 3.21655ZM6.64496 4.25383C6.74375 4.17829 6.84835 4.14923 6.96166 4.16666C7.07498 4.1841 7.17377 4.24802 7.26093 4.36134C7.30452 4.41654 7.33357 4.47175 7.35101 4.52986C7.36844 4.58797 7.37425 4.64317 7.36844 4.69838C7.36263 4.75358 7.3452 4.80298 7.31905 4.85237C7.28999 4.90177 7.25222 4.94244 7.20282 4.98021C7.15634 5.01799 7.10404 5.04123 7.05174 5.05576C6.99653 5.07029 6.94423 5.07319 6.89193 5.06448C6.83963 5.05576 6.78733 5.03542 6.73503 5.00346C6.68273 4.9715 6.63624 4.92792 6.59557 4.87271C6.55198 4.81751 6.52293 4.75939 6.50549 4.70128C6.48806 4.64317 6.48225 4.58797 6.48516 4.53276C6.48806 4.47756 6.50549 4.42816 6.53455 4.37877C6.56361 4.32937 6.60138 4.2887 6.64787 4.25092L6.64496 4.25383ZM7.07789 4.8146C7.12728 4.77683 7.15343 4.72743 7.15634 4.66932C7.15634 4.61121 7.136 4.5502 7.08951 4.48918C7.04302 4.42816 6.99072 4.39039 6.93261 4.37877C6.8745 4.36715 6.8222 4.37877 6.7728 4.41654C6.72341 4.45431 6.69726 4.50371 6.69436 4.56182C6.69436 4.61993 6.71469 4.68094 6.76409 4.74487C6.81058 4.80588 6.86288 4.84365 6.92099 4.85528C6.9791 4.8669 7.0314 4.85528 7.08079 4.8175L7.07789 4.8146Z" fill="#1B2A6B"/>
<path d="M10.0851 1.65625L10.5762 3.62911L10.3205 3.69303L8.89386 2.44365H8.88514L9.25996 3.95744L8.98103 4.02717L8.48999 2.05431L8.74568 1.99039L10.1636 3.23105H10.1723L9.80039 1.72889L10.0851 1.65916V1.65625Z" fill="#1B2A6B"/>
<path d="M11.686 2.08607C11.8749 2.08317 12.0231 2.12675 12.1306 2.21973C12.2381 2.31271 12.2933 2.43474 12.2962 2.59164L12.3136 3.57952L12.0376 3.58533L12.0318 3.3064H12.026C12.0086 3.35579 11.9795 3.39938 11.9446 3.43715C11.9098 3.47492 11.8662 3.50688 11.8197 3.53303C11.7732 3.55918 11.7209 3.57952 11.6686 3.59405C11.6134 3.60858 11.5582 3.61729 11.503 3.61729C11.4304 3.61729 11.3664 3.60858 11.3054 3.58824C11.2444 3.5679 11.1921 3.53884 11.1514 3.50107C11.1078 3.4633 11.0759 3.41972 11.0497 3.36451C11.0265 3.30931 11.012 3.25119 11.012 3.18727C11.012 3.05071 11.0555 2.94611 11.1485 2.87057C11.2415 2.79503 11.3839 2.74854 11.5698 2.7311L12.0115 2.69624V2.61488C12.0086 2.51319 11.9795 2.43474 11.9185 2.37953C11.8575 2.32433 11.779 2.29527 11.6802 2.29818C11.5814 2.29818 11.5001 2.32433 11.4391 2.37082C11.3781 2.41731 11.3403 2.48123 11.3258 2.56258H11.0643C11.0788 2.42602 11.1398 2.3098 11.2473 2.22263C11.3577 2.13547 11.503 2.09188 11.686 2.08898V2.08607ZM12.0115 2.86476L11.6105 2.90253C11.5059 2.91125 11.4275 2.9403 11.3693 2.98389C11.3141 3.03037 11.288 3.08848 11.288 3.16403C11.288 3.23667 11.317 3.29768 11.3722 3.34417C11.4275 3.39066 11.4972 3.411 11.5844 3.411C11.6425 3.411 11.6977 3.39938 11.75 3.37613C11.8023 3.35289 11.8488 3.32093 11.8865 3.28316C11.9243 3.24538 11.9563 3.2018 11.9795 3.15241C12.0028 3.10301 12.0115 3.05071 12.0115 2.99841V2.86476Z" fill="#1B2A6B"/>
<path d="M13.4787 3.55374C13.499 3.55665 13.5194 3.55956 13.5397 3.56246C13.5601 3.56246 13.5833 3.56246 13.6095 3.56537L13.5746 3.77166C13.5455 3.77166 13.5223 3.77166 13.4961 3.77166C13.4729 3.77166 13.4467 3.77166 13.4206 3.76294C13.3421 3.75423 13.2782 3.73679 13.2259 3.71064C13.1736 3.68449 13.133 3.65253 13.101 3.60895C13.0719 3.56537 13.0516 3.51016 13.0458 3.44624C13.04 3.38232 13.0458 3.30096 13.0603 3.20799L13.1998 2.41187L12.9586 2.36828L12.9935 2.17361L13.2405 2.2172L13.3044 1.854L13.5833 1.9034L13.5194 2.26659L13.807 2.31598L13.7722 2.51066L13.4845 2.46126L13.3392 3.29515C13.3247 3.3736 13.3276 3.43171 13.348 3.46948C13.3654 3.50726 13.4119 3.53631 13.4816 3.55084L13.4787 3.55374Z" fill="#1B2A6B"/>
<path d="M15.7742 2.95795L15.2512 4.3439L14.9897 4.24511L15.1059 3.93712C15.0594 3.99233 15.01 4.033 14.9606 4.06206C14.9083 4.09111 14.856 4.10855 14.8037 4.11726C14.7514 4.12598 14.6991 4.12598 14.6468 4.11726C14.5945 4.10855 14.5451 4.09693 14.4986 4.07949C14.3388 4.01848 14.2342 3.9284 14.179 3.80347C14.1238 3.67853 14.1355 3.52163 14.2081 3.32696L14.5277 2.48145L14.795 2.58314L14.4928 3.38797C14.4434 3.52163 14.4347 3.62913 14.4638 3.71339C14.4957 3.79765 14.5713 3.86448 14.6904 3.90806C14.7456 3.9284 14.8008 3.93712 14.856 3.93131C14.9112 3.9255 14.9606 3.90806 15.01 3.8761C15.0594 3.84705 15.103 3.80637 15.1408 3.75407C15.1785 3.70177 15.2134 3.64366 15.2396 3.57393L15.5127 2.85045L15.7829 2.95214L15.7742 2.95795Z" fill="#1B2A6B"/>
<path d="M16.5558 3.72201C16.6313 3.65518 16.7127 3.61741 16.7999 3.60579C16.887 3.59417 16.98 3.61741 17.073 3.67552C17.1107 3.69876 17.1456 3.72491 17.1747 3.75106L17.0555 3.94574C17.0323 3.92249 17.0032 3.89925 16.9713 3.87891C16.9132 3.84404 16.8551 3.8237 16.794 3.81789C16.733 3.81208 16.6749 3.81789 16.6197 3.83823C16.5616 3.85566 16.5093 3.88763 16.4599 3.9283C16.4105 3.96898 16.3698 4.01837 16.3321 4.07648L15.9311 4.73314L15.6899 4.58495L16.4628 3.32104L16.7011 3.46632L16.55 3.71039L16.5587 3.7162L16.5558 3.72201Z" fill="#1B2A6B"/>
<path d="M18.1481 4.50658C18.2904 4.63151 18.3689 4.76226 18.3863 4.90463C18.4037 5.0441 18.3631 5.17485 18.2585 5.29107L17.6047 6.03198L17.3984 5.84893L17.5815 5.63974H17.5786C17.5321 5.66007 17.4827 5.6746 17.4304 5.67751C17.3781 5.68041 17.3258 5.67751 17.2735 5.66589C17.2212 5.65426 17.1689 5.63392 17.1195 5.60777C17.0701 5.58162 17.0236 5.54966 16.9829 5.5148C16.9277 5.46831 16.887 5.41601 16.8551 5.3608C16.8231 5.3056 16.8057 5.25039 16.797 5.19228C16.7912 5.13708 16.797 5.07897 16.8144 5.02376C16.8318 4.96856 16.8638 4.91626 16.9045 4.86686C16.9946 4.76517 17.0992 4.71868 17.2183 4.72449C17.3403 4.7303 17.474 4.79132 17.6251 4.90463L17.9766 5.17485L18.0318 5.11383C18.0987 5.03829 18.1277 4.95984 18.1219 4.87849C18.1161 4.79713 18.0754 4.72449 17.9999 4.65766C17.9243 4.59374 17.8517 4.55597 17.7732 4.55016C17.6948 4.54435 17.6251 4.56469 17.5611 4.61699L17.3636 4.44556C17.4682 4.34968 17.5902 4.30609 17.7297 4.31481C17.8691 4.32353 18.0086 4.38745 18.1451 4.50948L18.1481 4.50658ZM17.8662 5.30269L17.5437 5.06153C17.4594 4.99761 17.381 4.96565 17.3113 4.95984C17.2386 4.95693 17.1776 4.98308 17.1282 5.03829C17.0788 5.09349 17.0614 5.15742 17.0701 5.22715C17.0788 5.29688 17.1166 5.3608 17.1834 5.41892C17.227 5.45669 17.2764 5.48574 17.3287 5.50318C17.3839 5.52061 17.4362 5.52933 17.4914 5.52642C17.5466 5.52351 17.5989 5.51189 17.6483 5.49155C17.6977 5.47121 17.7413 5.43925 17.7761 5.39858L17.8633 5.29688L17.8662 5.30269Z" fill="#1B2A6B"/>
<path d="M18.5054 6.77844L18.3456 6.90919C18.2962 6.86851 18.2497 6.82493 18.209 6.77263C18.116 6.65641 18.0812 6.5489 18.1073 6.45302C18.1335 6.35714 18.2119 6.25545 18.3398 6.15375L19.5485 5.17749L19.7315 5.40412L18.4879 6.40653C18.424 6.45883 18.3862 6.50823 18.3775 6.55181C18.3688 6.5983 18.395 6.65641 18.4531 6.72905C18.4618 6.73776 18.4676 6.74648 18.4763 6.75229C18.485 6.7581 18.4937 6.76973 18.5054 6.77844Z" fill="#1B2A6B"/>
<path d="M21.0217 7.50513L21.1408 7.77244L19.2812 8.5947L19.1621 8.32739L21.0217 7.50513Z" fill="#1B2A6B"/>
<path d="M21.1436 9.4749C21.1872 9.64051 21.1727 9.78289 21.103 9.90201C21.0332 10.0182 20.8967 10.1054 20.6962 10.1548L19.8245 10.3785L19.7548 10.1054L20.58 9.8962C20.7165 9.86134 20.8124 9.80613 20.8647 9.72768C20.917 9.65214 20.9286 9.55044 20.8967 9.42841C20.8821 9.3703 20.856 9.3209 20.8211 9.28023C20.7863 9.23955 20.7398 9.20759 20.6875 9.18434C20.6352 9.1611 20.5771 9.14948 20.5131 9.14657C20.4492 9.14657 20.3795 9.15238 20.3097 9.16982L19.563 9.35868L19.4933 9.08265L20.9286 8.71655L20.9984 8.98967L20.6787 9.07103C20.8066 9.07974 20.9083 9.11752 20.9838 9.18725C21.0594 9.25698 21.1117 9.35287 21.1436 9.4749Z" fill="#1B2A6B"/>
<path d="M21.4051 12.1885L19.9698 12.2234C19.8739 12.2234 19.7867 12.2118 19.7141 12.1769C19.6415 12.1449 19.5804 12.0984 19.531 12.0374C19.4817 11.9764 19.4439 11.9067 19.4177 11.8224C19.3916 11.7381 19.3771 11.6481 19.3741 11.5522C19.3741 11.4679 19.3771 11.3895 19.3916 11.3139C19.4061 11.2384 19.4294 11.1716 19.4613 11.1135C19.4962 11.0553 19.5398 11.003 19.5921 10.9595C19.6473 10.9159 19.7112 10.8839 19.7896 10.8636L19.7954 11.1454C19.7519 11.1629 19.7199 11.1832 19.6938 11.2122C19.6676 11.2413 19.6473 11.2704 19.6327 11.3052C19.6182 11.3401 19.6095 11.375 19.6037 11.4156C19.5979 11.4563 19.5979 11.4941 19.5979 11.5348C19.5979 11.5929 19.6066 11.6481 19.6211 11.6975C19.6356 11.7469 19.656 11.7904 19.6879 11.8253C19.717 11.8602 19.7577 11.8892 19.8071 11.9096C19.8565 11.9299 19.9175 11.9386 19.993 11.9357L20.2545 11.9299C20.1383 11.8863 20.054 11.8224 20.0046 11.7352C19.9553 11.6481 19.9291 11.5406 19.9262 11.4185C19.9262 11.3314 19.9378 11.25 19.9698 11.1745C20.0017 11.0989 20.0482 11.0321 20.1122 10.974C20.1761 10.9159 20.2516 10.8723 20.3388 10.8374C20.4289 10.8026 20.5276 10.7851 20.641 10.7822C20.7572 10.7822 20.8618 10.7938 20.9548 10.8229C21.0477 10.8549 21.1291 10.8955 21.1959 10.9507C21.2627 11.006 21.3121 11.0699 21.3499 11.1425C21.3848 11.2152 21.4051 11.2965 21.408 11.3808C21.4109 11.5057 21.3877 11.6161 21.3412 11.7091C21.2918 11.8021 21.2134 11.8718 21.1058 11.9183L21.4022 11.9125L21.408 12.1856L21.4051 12.1885ZM20.1528 11.5115C20.1557 11.6394 20.2051 11.7411 20.2981 11.8166C20.3911 11.8921 20.516 11.9299 20.6729 11.9241C20.7485 11.9241 20.8182 11.9096 20.8821 11.8892C20.946 11.8689 20.9983 11.8369 21.0448 11.7992C21.0884 11.7614 21.1233 11.7149 21.1465 11.6626C21.1698 11.6074 21.1814 11.5493 21.1785 11.4854C21.1785 11.4214 21.164 11.3633 21.1349 11.3139C21.1088 11.2645 21.071 11.221 21.0245 11.1832C20.978 11.1454 20.9228 11.1193 20.8589 11.0989C20.795 11.0786 20.7223 11.0728 20.6439 11.0728C20.5683 11.0728 20.4986 11.0873 20.4376 11.1076C20.3766 11.1309 20.3214 11.1599 20.2807 11.1977C20.2371 11.2355 20.2051 11.282 20.1819 11.3343C20.1586 11.3866 20.147 11.4447 20.1499 11.5086L20.1528 11.5115Z" fill="#1B2A6B"/>
<path d="M20.9925 13.1999C21.0826 13.2435 21.1465 13.3045 21.1901 13.3829C21.2337 13.4614 21.2453 13.5544 21.2279 13.6619C21.2221 13.7055 21.2105 13.7461 21.1959 13.7839L20.9693 13.7461C20.9809 13.7142 20.9925 13.6793 20.9984 13.6415C21.01 13.5747 21.0071 13.5108 20.9867 13.4556C20.9693 13.3975 20.9402 13.3452 20.9025 13.3016C20.8647 13.2551 20.8153 13.2173 20.7601 13.1883C20.702 13.1592 20.641 13.1389 20.5741 13.1273L19.8158 13.0023L19.8623 12.7234L21.3238 12.9645L21.2773 13.2406L20.9925 13.1941V13.2028V13.1999Z" fill="#1B2A6B"/>
<path d="M20.2196 14.3242C20.0743 14.2748 19.9493 14.2719 19.8418 14.3155C19.7343 14.359 19.6588 14.4433 19.6181 14.5624C19.5832 14.6612 19.5774 14.7484 19.6007 14.821C19.6239 14.8937 19.6733 14.9576 19.746 15.0099L19.6559 15.2656C19.5164 15.1813 19.4234 15.0738 19.3828 14.943C19.3421 14.8123 19.3508 14.6612 19.4147 14.4869C19.4874 14.2777 19.6094 14.1382 19.7721 14.0627C19.9348 13.9871 20.1353 13.9929 20.3706 14.0772C20.4811 14.1179 20.5769 14.1673 20.6554 14.2312C20.7338 14.2922 20.792 14.3648 20.8355 14.4433C20.8762 14.5217 20.8995 14.6089 20.9053 14.7019C20.9111 14.7949 20.8936 14.8907 20.8588 14.9895C20.8239 15.0883 20.7745 15.1726 20.7135 15.2394C20.6525 15.3062 20.5828 15.3556 20.5043 15.3905C20.4259 15.4254 20.3358 15.4399 20.2399 15.437C20.144 15.437 20.0423 15.4137 19.9377 15.376L19.8622 15.3498L20.2254 14.3242H20.2196ZM20.6467 14.9169C20.6844 14.8065 20.6815 14.7048 20.6321 14.6089C20.5828 14.513 20.5014 14.4375 20.3823 14.3852L20.1091 15.1581C20.2283 15.1958 20.3387 15.1929 20.4375 15.1493C20.5363 15.1058 20.606 15.0273 20.6467 14.9169Z" fill="#1B2A6B"/>
<path d="M19.9785 16.8172C19.9088 16.9247 19.8303 17.0031 19.7373 17.0467C19.6444 17.0903 19.5427 17.1048 19.4294 17.0874L20.147 17.5465L19.9901 17.7905L18.2729 16.7009L18.4211 16.4656L18.6681 16.6225L18.6739 16.6138C18.61 16.5266 18.5809 16.4307 18.5838 16.3203C18.5867 16.2099 18.6216 16.1024 18.6884 15.9978C18.7349 15.9252 18.7901 15.8671 18.8599 15.8235C18.9296 15.7799 19.0051 15.7508 19.0894 15.7392C19.1737 15.7276 19.2637 15.7334 19.3625 15.7566C19.4584 15.7799 19.5572 15.8235 19.6589 15.8874C19.7606 15.9513 19.8419 16.021 19.9059 16.0995C19.9698 16.175 20.0134 16.2535 20.0395 16.3348C20.0657 16.4162 20.0744 16.4976 20.0628 16.5789C20.0511 16.6603 20.0221 16.7387 19.9756 16.8143L19.9785 16.8172ZM18.8279 16.207C18.7582 16.3145 18.7436 16.4278 18.7843 16.544C18.825 16.6603 18.9122 16.7649 19.0516 16.852C19.1882 16.9392 19.316 16.9741 19.441 16.9624C19.5659 16.9508 19.6618 16.8898 19.7286 16.7823C19.7984 16.6719 19.8129 16.5586 19.7722 16.4453C19.7315 16.329 19.6415 16.2273 19.5049 16.1402C19.3683 16.053 19.2347 16.0152 19.1126 16.0269C18.9906 16.0414 18.8947 16.1024 18.825 16.2099L18.8279 16.207Z" fill="#1B2A6B"/>
<path d="M19.0022 18.1043L18.8105 18.3164L17.7122 17.3227L17.9039 17.1106L19.0022 18.1043ZM19.3218 18.5866C19.287 18.6244 19.2463 18.6447 19.2027 18.6476C19.1562 18.6476 19.1184 18.636 19.0865 18.6069C19.0516 18.575 19.0313 18.5343 19.0284 18.4907C19.0255 18.4471 19.0429 18.4036 19.0778 18.3658C19.1126 18.328 19.1533 18.3077 19.1969 18.3048C19.2405 18.3019 19.2811 18.3164 19.3189 18.3513C19.3509 18.3803 19.3683 18.4181 19.3712 18.4646C19.3741 18.5111 19.3567 18.5517 19.3218 18.5895V18.5866Z" fill="#1B2A6B"/>
<path d="M17.5465 18.4386C17.4506 18.3195 17.346 18.2497 17.2298 18.2323C17.1136 18.2149 17.009 18.2439 16.9073 18.3224C16.8259 18.3863 16.7736 18.456 16.7533 18.5316C16.733 18.6071 16.7417 18.6856 16.7765 18.7698L16.5644 18.9383C16.4918 18.7931 16.4715 18.6536 16.5034 18.52C16.5354 18.3863 16.6284 18.2643 16.7736 18.148C16.948 18.0115 17.1223 17.9563 17.3024 17.9795C17.4826 18.0057 17.6482 18.1132 17.8022 18.3078C17.8748 18.4008 17.9271 18.4938 17.962 18.5868C17.994 18.6798 18.0085 18.7727 17.9998 18.8628C17.994 18.9529 17.9678 19.0371 17.9213 19.1185C17.8748 19.1998 17.8109 19.2725 17.7267 19.3364C17.6424 19.4003 17.5581 19.4468 17.471 19.473C17.3838 19.4962 17.2966 19.502 17.2124 19.4875C17.1281 19.473 17.0438 19.441 16.9654 19.3887C16.884 19.3364 16.8114 19.2667 16.7417 19.1766L16.6923 19.1127L17.5465 18.4357V18.4386ZM17.593 19.1679C17.6831 19.0952 17.7354 19.0052 17.7441 18.8977C17.7528 18.7902 17.7237 18.6827 17.6511 18.5752L17.009 19.0836C17.0903 19.1795 17.1833 19.2376 17.2937 19.2521C17.4012 19.2667 17.5029 19.2405 17.593 19.165V19.1679Z" fill="#1B2A6B"/>
<path d="M15.8293 20.5101C15.6753 20.5857 15.533 20.6002 15.4022 20.5566C15.2744 20.513 15.164 20.3968 15.0739 20.2079L14.6816 19.3973L14.9344 19.2753L15.3034 20.0423C15.3644 20.1702 15.4371 20.2515 15.5242 20.2893C15.6114 20.3271 15.7102 20.3184 15.8264 20.2631C15.8816 20.237 15.9252 20.2021 15.9572 20.1585C15.9891 20.115 16.0124 20.0656 16.024 20.0104C16.0356 19.9552 16.0356 19.8941 16.024 19.8331C16.0124 19.7692 15.992 19.7053 15.9601 19.6385L15.6259 18.944L15.8816 18.8191L16.5238 20.1527L16.271 20.2748L16.1286 19.9755C16.146 20.1033 16.1286 20.2108 16.0763 20.298C16.024 20.3852 15.9397 20.4578 15.8264 20.513L15.8293 20.5101Z" fill="#1B2A6B"/>
<path d="M13.6472 19.9088C13.6269 19.9146 13.6065 19.9204 13.5891 19.9262C13.5717 19.932 13.5484 19.9407 13.5252 19.9523L13.47 19.749C13.4932 19.7373 13.5165 19.7257 13.5397 19.7141C13.56 19.7054 13.5862 19.6967 13.6123 19.6879C13.685 19.6647 13.7518 19.6531 13.8099 19.6531C13.868 19.6531 13.9203 19.6676 13.9639 19.6938C14.0075 19.7199 14.0482 19.7635 14.083 19.8187C14.1179 19.8739 14.147 19.9494 14.1702 20.0395L14.3794 20.8211L14.6148 20.7572L14.6671 20.9489L14.4259 21.0129L14.5218 21.3703L14.2487 21.4429L14.1528 21.0855L13.868 21.1611L13.8157 20.9693L14.1005 20.8937L13.8826 20.0773C13.8622 20.0017 13.8361 19.9494 13.8012 19.9204C13.7663 19.8913 13.7169 19.8884 13.6472 19.903V19.9088Z" fill="#1B2A6B"/>
<path d="M12.4792 20.7254C12.3862 20.7138 12.3019 20.6992 12.2322 20.6818C12.1625 20.6644 12.1015 20.6411 12.055 20.615C12.0085 20.5888 11.9707 20.554 11.9446 20.5133C11.9184 20.4726 11.9039 20.4232 11.8981 20.3622C11.8865 20.2227 11.93 20.1065 12.0288 20.0164C12.1276 19.9235 12.27 19.8712 12.4559 19.8537C12.5286 19.8479 12.6012 19.8508 12.6739 19.8625C12.7465 19.8741 12.8104 19.8944 12.8714 19.9264C12.9324 19.9583 12.9818 20.0019 13.0225 20.0542C13.0661 20.1065 13.0952 20.1762 13.1126 20.2547L12.8395 20.2779C12.822 20.2024 12.7785 20.1443 12.7087 20.1036C12.639 20.0629 12.5605 20.0455 12.4705 20.0542C12.3775 20.0629 12.3049 20.0891 12.2526 20.1356C12.2003 20.1821 12.1741 20.2373 12.1828 20.307C12.1886 20.3564 12.2119 20.3971 12.2555 20.429C12.299 20.4581 12.3717 20.4813 12.4734 20.493L12.6768 20.5162C12.9731 20.554 13.1271 20.676 13.1446 20.8765C13.1504 20.9462 13.1416 21.0101 13.1155 21.0653C13.0893 21.1206 13.0516 21.1729 13.0022 21.2135C12.9528 21.2542 12.8918 21.2891 12.8249 21.3152C12.7552 21.3414 12.6826 21.3559 12.607 21.3646C12.5344 21.3704 12.4676 21.3675 12.4007 21.3559C12.3339 21.3443 12.2729 21.321 12.2148 21.2891C12.1596 21.2571 12.1102 21.2135 12.0724 21.1583C12.0346 21.1031 12.0056 21.0334 11.9911 20.9549L12.2526 20.9317C12.27 21.013 12.3078 21.0741 12.3717 21.1118C12.4356 21.1496 12.5082 21.1641 12.5954 21.1583C12.6797 21.1496 12.7465 21.1235 12.7988 21.0799C12.8511 21.0363 12.8772 20.9811 12.8714 20.9172C12.8656 20.862 12.8337 20.8213 12.7755 20.7922C12.7174 20.7632 12.6186 20.7428 12.485 20.7254H12.4792Z" fill="#1B2A6B"/>
</svg>
