<svg width="28" height="19" viewBox="0 0 28 19" fill="none" xmlns="http://www.w3.org/2000/svg">
<g clip-path="url(#clip0_77_3361)">
<path d="M27.23 15.2801H24.59C24.27 15.2701 24.01 14.9901 24.03 14.6701C24.04 14.3601 24.29 14.1201 24.59 14.1101H26.64V9.68014L23.32 4.33014H18.57V14.1101H19.26C19.58 14.1001 19.86 14.3501 19.87 14.6701C19.88 14.9901 19.63 15.2701 19.31 15.2801C19.29 15.2801 19.28 15.2801 19.26 15.2801H17.99C17.67 15.2801 17.4 15.0201 17.4 14.6901V3.73014C17.4 3.41014 17.66 3.14014 17.99 3.14014H23.66C23.86 3.14014 24.05 3.24014 24.16 3.42014L27.74 9.19014C27.8 9.28014 27.83 9.39014 27.83 9.50014V14.6901C27.83 15.0101 27.57 15.2801 27.24 15.2801H27.23Z" fill="#1A256C"/>
<path d="M6.82997 15.2802H5.49997C5.17997 15.2802 4.90997 15.0202 4.90997 14.6902V11.8602H1.42997C1.10997 11.8602 0.839966 11.6002 0.839966 11.2702C0.839966 10.9402 1.09997 10.6802 1.42997 10.6802H5.50997C5.82997 10.6802 6.09997 10.9402 6.09997 11.2702V14.1002H6.83997C7.15997 14.1002 7.42997 14.3602 7.42997 14.6902C7.42997 15.0202 7.16997 15.2802 6.83997 15.2802H6.82997Z" fill="#1A256C"/>
<path d="M5.50992 9.00996C5.18992 9.00996 4.91992 8.74996 4.91992 8.41996V5.05996C4.91992 4.73996 5.16992 4.46996 5.49992 4.45996C5.81992 4.45996 6.08992 4.70996 6.09992 5.03996V8.41996C6.09992 8.73996 5.83992 9.00996 5.51992 9.00996H5.50992Z" fill="#1A256C"/>
<path d="M17.9899 15.2801H12.7099C12.3899 15.2901 12.1099 15.0401 12.0999 14.7201C12.0899 14.4001 12.3399 14.1201 12.6599 14.1101C12.6799 14.1101 12.6899 14.1101 12.7099 14.1101H17.3999V3.50007C17.3999 2.87007 17.1699 2.26007 16.7499 1.78007C16.2899 1.36007 15.6799 1.14007 15.0599 1.18007H6.09992V2.83007C6.09992 3.15007 5.84992 3.42007 5.51992 3.43007C5.19992 3.43007 4.92992 3.18007 4.91992 2.85007V0.590071C4.91992 0.270071 5.17992 7.10366e-05 5.50992 7.10366e-05H15.0699C16.0099 -0.049929 16.9299 0.300071 17.6099 0.960071C18.2399 1.66007 18.5799 2.57007 18.5799 3.51007V14.6901C18.5799 15.0101 18.3199 15.2801 17.9899 15.2801Z" fill="#1A256C"/>
<path d="M22.1199 18.2401C20.4299 18.2401 19.0599 16.8701 19.0499 15.1801C19.0499 13.4901 20.4199 12.1201 22.1099 12.1101C23.7999 12.1101 25.1699 13.4801 25.1799 15.1701C25.1799 16.8601 23.8099 18.2301 22.1199 18.2401ZM22.1199 13.2901C21.0799 13.2901 20.2299 14.1301 20.2299 15.1801C20.2299 16.2301 21.0699 17.0701 22.1199 17.0701C23.1599 17.0701 24.0099 16.2301 24.0099 15.1801C24.0099 14.1401 23.1599 13.2901 22.1199 13.2901Z" fill="#1A256C"/>
<path d="M9.63996 18.2401C7.94996 18.2401 6.57996 16.8701 6.57996 15.1801C6.57996 13.4901 7.94996 12.1201 9.63996 12.1101C11.33 12.1101 12.7 13.4801 12.7 15.1701C12.7 16.8601 11.33 18.2301 9.63996 18.2401ZM9.63996 13.2901C8.59996 13.2901 7.74996 14.1301 7.74996 15.1801C7.74996 16.2301 8.58996 17.0701 9.63996 17.0701C10.68 17.0701 11.53 16.2301 11.53 15.1801C11.53 14.1401 10.68 13.2901 9.63996 13.2901Z" fill="#1A256C"/>
<path d="M26.99 9.79995H20.6C20.28 9.79995 20.01 9.53995 20.01 9.20995V6.03995C20.01 5.71995 20.27 5.44995 20.6 5.44995H22.31C22.63 5.44995 22.9 5.70995 22.9 6.03995C22.9 6.36995 22.64 6.62995 22.31 6.62995H21.18V8.62995H26.98C27.3 8.63995 27.56 8.91995 27.54 9.23995C27.53 9.54995 27.28 9.78995 26.98 9.79995H26.99Z" fill="#1A256C"/>
<path d="M9.65998 3.40998H2.93998C2.61998 3.40998 2.34998 3.14998 2.34998 2.81998C2.34998 2.48998 2.60998 2.22998 2.93998 2.22998H9.65998C9.97998 2.22998 10.25 2.48998 10.25 2.81998C10.25 3.14998 9.98998 3.40998 9.65998 3.40998Z" fill="#1A256C"/>
<path d="M3.32997 5.64997H1.42997C1.10997 5.64997 0.839966 5.38997 0.839966 5.05997C0.839966 4.72997 1.09997 4.46997 1.42997 4.46997H3.32997C3.64997 4.46997 3.91997 4.72997 3.91997 5.05997C3.91997 5.38997 3.65997 5.64997 3.32997 5.64997Z" fill="#1A256C"/>
<path d="M7.74001 9.01008H2.48001C2.16001 9.01008 1.89001 8.75008 1.89001 8.42008C1.89001 8.09008 2.15001 7.83008 2.48001 7.83008H7.74001C8.06001 7.83008 8.33001 8.09008 8.33001 8.42008C8.33001 8.75008 8.07001 9.01008 7.74001 9.01008Z" fill="#1A256C"/>
<path d="M0.63 9.01008H0.59C0.27 9.01008 0 8.75008 0 8.42008C0 8.09008 0.26 7.83008 0.59 7.83008H0.63C0.95 7.83008 1.22 8.09008 1.22 8.42008C1.22 8.75008 0.96 9.01008 0.63 9.01008Z" fill="#1A256C"/>
</g>
<defs>
<clipPath id="clip0_77_3361">
<rect width="27.82" height="18.24" fill="white"/>
</clipPath>
</defs>
</svg>
