<svg width="34" height="25" viewBox="0 0 34 25" fill="none" xmlns="http://www.w3.org/2000/svg">
<g clip-path="url(#clip0_149_366)">
<mask id="mask0_149_366" style="mask-type:luminance" maskUnits="userSpaceOnUse" x="0" y="0" width="34" height="25">
<path d="M34 0H0V25H34V0Z" fill="white"/>
</mask>
<g mask="url(#mask0_149_366)">
<path d="M27.8069 24.3478C27.3124 24.3478 26.8403 24.1646 26.4582 23.8212C26.0536 23.4549 25.8175 22.9512 25.7838 22.4018C25.7726 22.1042 25.8063 21.8295 25.9074 21.5547C26.3121 20.1697 27.5597 19.1738 28.9983 19.0936C30.1111 19.025 31.0664 19.8949 31.1339 21.0396C31.1451 21.3258 31.1114 21.6005 31.0102 21.8638C30.5944 23.2718 29.3468 24.2676 27.9081 24.3478C27.8744 24.3478 27.8294 24.3478 27.7957 24.3478H27.8069ZM29.122 20.0094C29.122 20.0094 29.077 20.0094 29.0545 20.0094C27.9868 20.0666 27.0651 20.8107 26.7617 21.8523C26.6942 22.0355 26.6717 22.1958 26.683 22.356C26.7167 22.9856 27.2337 23.4549 27.8631 23.432C28.9309 23.3748 29.8526 22.6307 30.156 21.5891C30.156 21.5891 30.156 21.5662 30.156 21.5547C30.2122 21.4059 30.2347 21.2457 30.2235 21.0854C30.1898 20.4787 29.6952 20.0094 29.0995 20.0094H29.122Z" fill="#1A256C"/>
<path d="M28.4813 22.1613C28.3577 22.1613 28.2453 22.1155 28.1666 22.0354C28.0767 21.9438 28.0317 21.8294 28.0317 21.7149C28.0317 21.6462 28.0317 21.589 28.0655 21.5317C28.0879 21.4859 28.1217 21.4287 28.1666 21.3829C28.3352 21.2112 28.6274 21.2112 28.796 21.3829C28.841 21.4287 28.8747 21.4745 28.8972 21.5317C28.9197 21.589 28.9309 21.6462 28.9309 21.7149C28.9309 21.7721 28.9309 21.8294 28.8972 21.8866C28.8747 21.9438 28.841 21.9896 28.796 22.0354C28.7174 22.1155 28.5937 22.1613 28.4813 22.1613Z" fill="#1A256C"/>
<path d="M11.3071 24.3476C10.8125 24.3476 10.3405 24.1645 9.95831 23.8211C9.55368 23.4548 9.31764 22.9511 9.28393 22.4016C9.27269 22.1155 9.3064 21.8293 9.40756 21.5546C9.81219 20.1695 11.0598 19.1736 12.4985 19.0935C13.038 19.0591 13.555 19.2537 13.9596 19.62C14.3643 19.9863 14.6003 20.49 14.634 21.0395C14.6452 21.3256 14.6115 21.6004 14.5104 21.8636C14.0945 23.2716 12.8469 24.2675 11.4082 24.3476C11.3745 24.3476 11.3295 24.3476 11.2958 24.3476H11.3071ZM12.6221 20.0092C12.6221 20.0092 12.5771 20.0092 12.5547 20.0092C11.4869 20.0665 10.5652 20.8105 10.2618 21.8522C10.1943 22.0353 10.1719 22.1956 10.1831 22.3559C10.1943 22.6649 10.3292 22.9396 10.554 23.1457C10.7788 23.3517 11.0598 23.4548 11.3633 23.4319C12.431 23.3746 13.3527 22.6306 13.6562 21.5889C13.6562 21.5889 13.6562 21.566 13.6562 21.5546C13.7124 21.4058 13.7348 21.2455 13.7236 21.0852C13.7124 20.7762 13.5775 20.5015 13.3527 20.2954C13.1504 20.1008 12.8806 20.0092 12.5996 20.0092H12.6221Z" fill="#1A256C"/>
<path d="M11.9814 22.1614C11.9814 22.1614 11.8691 22.1614 11.8129 22.127C11.7567 22.1041 11.7117 22.0813 11.6667 22.0355C11.6218 21.9897 11.5881 21.9439 11.5656 21.8867C11.5431 21.8294 11.5319 21.7722 11.5319 21.715C11.5319 21.6463 11.5431 21.589 11.5656 21.5318C11.5881 21.4746 11.6218 21.4288 11.6667 21.383C11.7005 21.3487 11.7567 21.3143 11.8129 21.2914C11.914 21.2456 12.0489 21.2456 12.15 21.2914C12.2062 21.3143 12.2624 21.3487 12.2962 21.383C12.3861 21.4746 12.431 21.589 12.431 21.715C12.431 21.8294 12.3861 21.9439 12.2962 22.0355C12.2062 22.1156 12.1051 22.1614 11.9814 22.1614Z" fill="#1A256C"/>
<path d="M26.3457 22.1728H14.1057C13.8584 22.1728 13.6561 21.9668 13.6561 21.715C13.6561 21.4631 13.8584 21.2571 14.1057 21.2571H26.3457C26.593 21.2571 26.7953 21.4631 26.7953 21.715C26.7953 21.9668 26.593 22.1728 26.3457 22.1728Z" fill="#1A256C"/>
<path d="M22.6141 22.1729C22.6141 22.1729 22.5355 22.1729 22.5017 22.1614C22.2657 22.0928 22.1196 21.8409 22.187 21.6005L25.75 8.04743L22.3219 8.08177C22.0746 8.08177 21.8723 7.87572 21.8723 7.62389C21.8723 7.37206 22.0746 7.16602 22.3219 7.16602H25.795C25.9973 7.16602 26.2108 7.2347 26.3794 7.38351C26.548 7.53232 26.6492 7.74981 26.6604 7.97874C26.6604 8.10466 26.6492 8.21913 26.6042 8.3336L23.0525 21.8409C22.9963 22.047 22.8164 22.1843 22.6141 22.1843V22.1729Z" fill="#1A256C"/>
<path d="M7.13715 22.1728C6.94607 22.1728 6.755 22.0927 6.59764 21.9553C6.42905 21.8065 6.32789 21.589 6.31665 21.3601C6.31665 21.2456 6.31665 21.1312 6.37285 21.0167L7.36194 17.2621C7.42938 17.0217 7.66541 16.8729 7.91268 16.9416C8.14872 17.0103 8.29483 17.2621 8.22739 17.5025L7.22706 21.3029L9.84591 21.2685C10.0932 21.2685 10.2955 21.4746 10.2955 21.7264C10.2955 21.9782 10.0932 22.1843 9.84591 22.1843H7.1821C7.1821 22.1843 7.15963 22.1843 7.13715 22.1843V22.1728Z" fill="#1A256C"/>
<path d="M30.5943 22.1728C30.347 22.1728 30.1447 21.9668 30.1447 21.715C30.1447 21.4631 30.347 21.2571 30.5943 21.2571H31.1226C31.5384 21.2342 31.9206 20.9251 32.0442 20.5016L33.0221 16.7928C33.0783 16.6097 33.0333 16.438 32.9097 16.3464L31.1226 15.0414C31.0102 14.9613 30.9315 14.8125 30.9315 14.6751L30.909 9.51259C30.909 9.2951 30.7854 9.13485 30.5718 9.16919H26.031C25.7837 9.16919 25.5814 8.96314 25.5814 8.71131C25.5814 8.45948 25.7837 8.25344 26.031 8.25344H30.5381C31.1675 8.23054 31.7632 8.73421 31.8082 9.40957L31.8307 14.4348L33.4379 15.6138C33.8763 15.9686 34.0449 16.541 33.8763 17.0675L32.9097 20.7534C32.6737 21.5662 31.9656 22.1385 31.1451 22.1728H30.5943Z" fill="#1A256C"/>
<path d="M33.3368 17.8345H32.269C32.0218 17.8345 31.8195 17.6284 31.8195 17.3766C31.8195 17.1247 32.0218 16.9187 32.269 16.9187H33.3368C33.5841 16.9187 33.7864 17.1247 33.7864 17.3766C33.7864 17.6284 33.5841 17.8345 33.3368 17.8345Z" fill="#1A256C"/>
<path d="M30.1448 17.8345H23.7606C23.5133 17.8345 23.311 17.6284 23.311 17.3766C23.311 17.1247 23.5133 16.9187 23.7606 16.9187H30.1448C30.392 16.9187 30.5943 17.1247 30.5943 17.3766C30.5943 17.6284 30.392 17.8345 30.1448 17.8345Z" fill="#1A256C"/>
<path d="M27.5934 15.1329C26.964 15.1329 26.4132 14.6063 26.3795 13.9424C26.3795 13.7707 26.3908 13.599 26.4582 13.4273L26.8741 11.8476C27.1101 11.0349 27.8182 10.474 28.6387 10.4282H31.325C31.5722 10.4282 31.7746 10.6343 31.7746 10.8861C31.7746 11.1379 31.5722 11.344 31.325 11.344H28.6612C28.2453 11.3669 27.8632 11.6759 27.7395 12.0995L27.3124 13.7135C27.2787 13.8051 27.2787 13.8508 27.2787 13.8966C27.2787 14.0912 27.4585 14.24 27.6384 14.2286H31.3924C31.6397 14.2286 31.842 14.4346 31.842 14.6865C31.842 14.9383 31.6397 15.1443 31.3924 15.1443H27.6608C27.6608 15.1443 27.6159 15.1443 27.5934 15.1443V15.1329Z" fill="#1A256C"/>
<path d="M12.7345 16.7584C8.3735 16.7584 4.83301 13.1526 4.83301 8.71122C4.83301 4.26983 8.38474 0.664062 12.7345 0.664062C17.0842 0.664062 20.636 4.26983 20.636 8.71122C20.636 13.1526 17.0955 16.7584 12.7345 16.7584ZM12.7345 1.57981C8.86805 1.57981 5.73218 4.77349 5.73218 8.71122C5.73218 12.649 8.86805 15.8426 12.7345 15.8426C16.6009 15.8426 19.7368 12.649 19.7368 8.71122C19.7368 4.77349 16.6009 1.57981 12.7345 1.57981Z" fill="#1A256C"/>
<path d="M5.82211 16.209H0.494509C0.247236 16.209 0.0449219 16.0029 0.0449219 15.7511C0.0449219 15.4993 0.247236 15.2932 0.494509 15.2932H5.82211C6.06938 15.2932 6.2717 15.4993 6.2717 15.7511C6.2717 16.0029 6.06938 16.209 5.82211 16.209Z" fill="#1A256C"/>
<path d="M5.29388 18.3838H2.09058C1.84331 18.3838 1.64099 18.1777 1.64099 17.9259C1.64099 17.6741 1.84331 17.468 2.09058 17.468H5.28264C5.52992 17.468 5.73223 17.6741 5.73223 17.9259C5.73223 18.1777 5.52992 18.3838 5.28264 18.3838H5.29388Z" fill="#1A256C"/>
<path d="M4.75429 20.5473H3.68653C3.43925 20.5473 3.23694 20.3413 3.23694 20.0895C3.23694 19.8376 3.43925 19.6316 3.68653 19.6316H4.75429C5.00157 19.6316 5.20388 19.8376 5.20388 20.0895C5.20388 20.3413 5.00157 20.5473 4.75429 20.5473Z" fill="#1A256C"/>
<path d="M18.714 8.69988C18.714 12.0538 16.039 14.7782 12.7457 14.7782C9.45251 14.7782 6.77747 12.0538 6.77747 8.69988C6.77747 5.34594 9.45251 2.62158 12.7457 2.62158C16.039 2.62158 18.714 5.34594 18.714 8.69988Z" fill="#D8E5FF"/>
</g>
<path d="M8.87934 7.57778L8.74446 8.32182H9.91339L9.83471 8.75681H8.66579L8.46347 9.93584H7.90149L8.38479 7.13135H10.3293L10.2506 7.57778H8.8681H8.87934Z" fill="#1A256C"/>
<path d="M11.7342 9.93584L11.3183 8.7797H10.9249L10.7226 9.93584H10.1606L10.644 7.13135H11.8354C12.1163 7.13135 12.3074 7.20003 12.4423 7.34884C12.5772 7.4862 12.6109 7.69224 12.5659 7.95552C12.5322 8.16157 12.4535 8.32182 12.3299 8.45919C12.2063 8.5851 12.0489 8.67668 11.8466 8.71102L12.3299 9.93584H11.723H11.7342ZM11.0036 8.34472H11.5206C11.6668 8.34472 11.7904 8.31038 11.8803 8.2417C11.9702 8.17301 12.0264 8.08144 12.0489 7.95552C12.0714 7.82961 12.0489 7.72659 11.9815 7.66935C11.914 7.61212 11.8016 7.57778 11.6555 7.57778H11.1385L11.0036 8.34472Z" fill="#1A256C"/>
<path d="M13.6001 7.57778L13.4764 8.32182H14.6341L14.5554 8.75681H13.3977L13.2629 9.50085H14.6341L14.5554 9.93584H12.611L13.0943 7.13135H15.0387L14.9601 7.57778H13.5888H13.6001Z" fill="#1A256C"/>
<path d="M15.8704 7.57778L15.7468 8.32182H16.9045L16.8258 8.75681H15.6681L15.5332 9.50085H16.9045L16.8258 9.93584H14.8813L15.3647 7.13135H17.3091L17.2304 7.57778H15.8592H15.8704Z" fill="#1A256C"/>
</g>
<defs>
<clipPath id="clip0_149_366">
<rect width="34" height="25" fill="white"/>
</clipPath>
</defs>
</svg>
