<svg width="10" height="10" viewBox="0 0 10 10" fill="none" xmlns="http://www.w3.org/2000/svg">
<g clip-path="url(#clip0_149_420)">
<path d="M5.54997 6.90005C5.44997 6.90005 5.35997 6.89005 5.26997 6.84005C5.20997 6.78005 5.17997 6.69005 5.18997 6.60005C5.18997 6.53005 5.19997 6.46005 5.21997 6.39005C5.22997 6.31005 5.24997 6.23005 5.27997 6.15005L5.52997 5.28005C5.55997 5.19005 5.56997 5.11005 5.57997 5.02005C5.57997 4.92005 5.58997 4.86005 5.58997 4.82005C5.58997 4.65005 5.51997 4.48005 5.38997 4.37005C5.22997 4.25005 5.02997 4.19005 4.81997 4.20005C4.66997 4.20005 4.52997 4.23005 4.38997 4.27005C4.23997 4.32005 4.07997 4.37005 3.90997 4.44005L3.83997 4.72005C3.83997 4.72005 3.94997 4.68005 4.01997 4.66005C4.07997 4.64005 4.14997 4.63005 4.21997 4.63005C4.31997 4.62005 4.40997 4.64005 4.48997 4.70005C4.53997 4.76005 4.56997 4.85005 4.55997 4.93005C4.55997 5.00005 4.55997 5.07005 4.53997 5.14005C4.52997 5.21005 4.50997 5.29005 4.47997 5.38005L4.21997 6.25005C4.19997 6.33005 4.17997 6.41005 4.16997 6.50005C4.15997 6.57005 4.14997 6.64005 4.15997 6.71005C4.15997 6.88005 4.23997 7.05005 4.36997 7.15005C4.52997 7.28005 4.73997 7.34005 4.93997 7.33005C5.08997 7.33005 5.22997 7.31005 5.36997 7.27005C5.48997 7.23005 5.64997 7.17005 5.85997 7.09005L5.92997 6.82005C5.87997 6.84005 5.81997 6.86005 5.75997 6.88005C5.68997 6.90005 5.60997 6.90005 5.53997 6.90005H5.54997Z" fill="#5775D1"/>
<path d="M5.83996 2.63992C5.58996 2.42992 5.22996 2.42992 4.97996 2.63992C4.76996 2.81992 4.73996 3.14992 4.92996 3.35992C4.94996 3.37992 4.95996 3.39992 4.97996 3.40992C5.21996 3.62992 5.58996 3.62992 5.83996 3.40992C6.04996 3.21992 6.07996 2.89992 5.88996 2.67992C5.86996 2.65992 5.85996 2.64992 5.83996 2.62992V2.63992Z" fill="#5775D1"/>
<path d="M4.92 0C2.2 0 0 2.21 0 4.92C0 7.63 2.21 9.84 4.92 9.84C7.64 9.84 9.84 7.64 9.84 4.92C9.84 2.2 7.64 0 4.92 0ZM4.92 9.4C2.45 9.4 0.44 7.4 0.45 4.92C0.45 2.45 2.45 0.44 4.93 0.45C7.4 0.45 9.4 2.45 9.4 4.92C9.4 7.39 7.4 9.4 4.93 9.4H4.92Z" fill="#5775D1"/>
</g>
<defs>
<clipPath id="clip0_149_420">
<rect width="9.85" height="9.85" fill="white"/>
</clipPath>
</defs>
</svg>
