<svg width="290" height="65" viewBox="0 0 290 65" fill="none" xmlns="http://www.w3.org/2000/svg">
<rect width="290" height="65" rx="4" fill="#00C200"/>
<g clip-path="url(#clip0_411_28109)">
<path d="M94 32.7037C93.9833 33.0364 93.933 33.369 93.8661 33.7016C93.6651 34.9655 93.2298 36.163 92.6103 37.2772C92.309 37.8094 90.8691 39.8218 90.4338 40.3539C86.7169 44.4452 82.1629 47.7048 77.0731 49.9167C76.621 50.1329 76.0852 49.95 75.8676 49.5009C75.8006 49.3513 75.7671 49.185 75.7839 49.0186L76.1187 45.9419C76.169 45.4596 75.8174 45.0106 75.3318 44.9607C73.0548 44.7279 70.8447 44.1125 68.8021 43.1147C64.1142 40.803 61 36.7118 61 32.0219C61 24.8207 68.3836 18.9999 77.4916 18.9999C81.7108 18.95 85.8295 20.2971 89.1948 22.8582C92.3257 25.1533 94.1172 28.8454 94 32.7037Z" fill="white"/>
<path d="M71.9665 34.9156C72.134 35.0653 72.2177 35.2815 72.2177 35.5143C72.2177 35.98 71.8493 36.3459 71.3973 36.3459H68.0152C67.5464 36.3459 67.1781 35.9633 67.1781 35.5143V29.1779C67.1781 28.9617 67.2618 28.7455 67.4292 28.5792C67.7474 28.2466 68.2831 28.2466 68.618 28.5626C68.7854 28.7289 68.8859 28.9451 68.8691 29.1779V34.6661H71.3973C71.6149 34.6661 71.8326 34.7493 71.9833 34.9156H71.9665Z" fill="#00C200"/>
<path d="M74.7124 28.9953V35.6975C74.7124 36.0634 74.411 36.3461 74.0594 36.3461H73.6743C73.306 36.3461 73.0214 36.0468 73.0214 35.6975V28.9953C73.0214 28.6294 73.3227 28.3467 73.6743 28.3467H74.0427C74.411 28.3467 74.7124 28.6294 74.7124 28.9953Z" fill="#00C200"/>
<path d="M82.5479 29.1782V35.4813C82.5479 35.947 82.1796 36.3461 81.694 36.3628C81.4764 36.3628 81.2755 36.2796 81.1248 36.1299C81.0913 36.1133 79.9528 34.6332 78.9984 33.4025C78.2785 32.4878 77.659 31.6729 77.659 31.6729V35.5146C77.659 35.9803 77.2739 36.3461 76.8219 36.3461C76.3698 36.3461 75.9847 35.9636 75.9847 35.5146V29.2281C75.9847 28.7625 76.3363 28.3799 76.8051 28.3467C77.0563 28.3467 77.3074 28.4465 77.4748 28.646C77.5083 28.6959 79.2496 30.9411 80.2374 32.2217C80.6225 32.7206 80.8904 33.0699 80.8904 33.0699V29.1949C80.8904 28.7292 81.2587 28.3467 81.7275 28.3467C82.1963 28.3467 82.5814 28.7126 82.5814 29.1782H82.5479Z" fill="#00C200"/>
<path d="M85.5115 33.1859V34.6827H88.0396C88.5084 34.6495 88.9102 35.0153 88.927 35.4644C88.9437 35.9134 88.5921 36.3292 88.1401 36.3458C88.1066 36.3458 88.0731 36.3458 88.0396 36.3458H84.6576C84.1888 36.3458 83.8204 35.9633 83.8204 35.5143V29.1779C83.8204 28.7122 84.1888 28.3463 84.6576 28.3463H88.0396C88.5084 28.3131 88.9102 28.679 88.927 29.128C88.9437 29.577 88.5921 29.9928 88.1401 30.0094C88.1066 30.0094 88.0731 30.0094 88.0396 30.0094H85.5115V31.5062H88.0396C88.5084 31.5062 88.8768 31.8887 88.8768 32.3378C88.8768 32.7868 88.4917 33.1693 88.0396 33.1693H85.5115V33.1859Z" fill="#00C200"/>
</g>
<path d="M109.272 44.776C108.781 44.8827 108.312 44.9573 107.864 45C107.437 45.0213 107.011 45.032 106.584 45.032C104.792 45.0107 103.437 44.552 102.52 43.656C101.603 42.7387 101.144 41.2347 101.144 39.144V26.536H105.624V38.92C105.624 39.496 105.677 39.9653 105.784 40.328C105.891 40.6693 106.04 40.9467 106.232 41.16C106.424 41.352 106.648 41.4907 106.904 41.576C107.181 41.64 107.469 41.672 107.768 41.672C108.003 41.7147 108.237 41.7253 108.472 41.704C108.728 41.6827 108.995 41.6613 109.272 41.64V44.776ZM134.197 26.536L130.005 45H126.037L122.133 32.328L118.261 45H114.293L110.133 26.536H114.677L116.853 38.76L120.533 26.952H123.797L127.477 38.76L129.653 26.536H134.197ZM133.154 24.168H117.186V21.16H133.154V24.168ZM133.09 17.448H129.282V11.784H133.09V17.448ZM135.971 45V26.536H140.419V37.192C140.419 37.7893 140.536 38.3653 140.771 38.92C141.027 39.4533 141.357 39.9227 141.763 40.328C142.189 40.7333 142.691 41.064 143.267 41.32C143.843 41.5547 144.461 41.672 145.123 41.672C146.296 41.672 147.181 41.3627 147.779 40.744C148.397 40.1253 148.707 39.1227 148.707 37.736V26.536H153.155V38.792C153.155 39.7947 153.005 40.7013 152.707 41.512C152.408 42.3013 151.992 42.9733 151.458 43.528C150.947 44.0827 150.317 44.5093 149.571 44.808C148.845 45.1067 148.035 45.256 147.139 45.256C145.411 45.256 143.949 44.9467 142.755 44.328C141.581 43.7093 140.803 42.824 140.419 41.672H140.291V45H135.971ZM164.835 44.776C164.344 44.8827 163.875 44.9573 163.427 45C163 45.0213 162.573 45.032 162.147 45.032C160.355 45.0107 159 44.552 158.083 43.656C157.165 42.7387 156.707 41.2347 156.707 39.144V26.536H161.187V38.92C161.187 39.496 161.24 39.9653 161.347 40.328C161.453 40.6693 161.603 40.9467 161.795 41.16C161.987 41.352 162.211 41.4907 162.467 41.576C162.744 41.64 163.032 41.672 163.331 41.672C163.565 41.7147 163.8 41.7253 164.035 41.704C164.291 41.6827 164.557 41.6613 164.835 41.64V44.776ZM189.76 26.536L185.568 45H181.6L177.696 32.328L173.824 45H169.856L165.696 26.536H170.24L172.416 38.76L176.096 26.952H179.36L183.04 38.76L185.216 26.536H189.76ZM188.717 18.888V24.168H172.781V21.16H180.653V18.888H183.853V21.16H185.581V18.888H188.717ZM188.653 17.448H184.845V11.784H188.653V17.448ZM199.629 26.408C200.909 26.408 202.093 26.6213 203.181 27.048C204.269 27.4747 205.208 28.0933 205.997 28.904C206.786 29.6933 207.394 30.6747 207.821 31.848C208.269 33 208.493 34.312 208.493 35.784C208.493 37.2347 208.29 38.5467 207.885 39.72C207.48 40.8933 206.904 41.896 206.157 42.728C205.41 43.5387 204.493 44.168 203.405 44.616C202.317 45.0427 201.08 45.256 199.693 45.256C198.178 45.256 196.834 44.9787 195.661 44.424C194.488 43.8693 193.538 43.1227 192.813 42.184C192.109 41.224 191.64 40.1147 191.405 38.856C191.192 37.5973 191.277 36.264 191.661 34.856H198.637V37.832H195.533C195.512 38.3013 195.597 38.7707 195.789 39.24C195.981 39.688 196.258 40.0933 196.621 40.456C197.005 40.8187 197.453 41.1173 197.965 41.352C198.477 41.5653 199.032 41.672 199.629 41.672C200.461 41.672 201.165 41.512 201.741 41.192C202.317 40.872 202.786 40.4453 203.149 39.912C203.512 39.3573 203.768 38.728 203.917 38.024C204.088 37.2987 204.173 36.5413 204.173 35.752C204.173 34.8133 204.056 33.992 203.821 33.288C203.586 32.584 203.256 31.9973 202.829 31.528C202.424 31.0373 201.944 30.6747 201.389 30.44C200.834 30.184 200.237 30.056 199.597 30.056C198.765 30.056 197.986 30.2693 197.261 30.696C196.557 31.1013 196.056 31.7093 195.757 32.52H191.533C191.661 31.56 191.96 30.7067 192.429 29.96C192.92 29.2133 193.528 28.5733 194.253 28.04C195 27.5067 195.832 27.1013 196.749 26.824C197.666 26.5467 198.626 26.408 199.629 26.408ZM228.123 45H223.771V41.672H223.675C223.291 42.824 222.555 43.7093 221.467 44.328C220.401 44.9467 219.003 45.256 217.275 45.256C216.379 45.256 215.547 45.1173 214.779 44.84C214.011 44.5627 213.339 44.1573 212.763 43.624C212.209 43.0693 211.761 42.408 211.419 41.64C211.099 40.8507 210.939 39.944 210.939 38.92V26.536H215.387V37.736C215.387 39.1227 215.739 40.1253 216.443 40.744C217.169 41.3627 218.129 41.672 219.323 41.672C219.985 41.672 220.582 41.5547 221.115 41.32C221.649 41.064 222.107 40.7333 222.491 40.328C222.875 39.9227 223.163 39.4533 223.355 38.92C223.569 38.3653 223.675 37.7893 223.675 37.192V26.536H228.123V45Z" fill="white"/>
<defs>
<clipPath id="clip0_411_28109">
<rect width="33" height="31" fill="white" transform="translate(61 19)"/>
</clipPath>
</defs>
</svg>
