<svg width="20" height="19" viewBox="0 0 20 19" fill="none" xmlns="http://www.w3.org/2000/svg">
<g clip-path="url(#clip0_42_265)">
<path d="M19.71 8.23983C19.7 8.43983 19.67 8.63983 19.63 8.83983C19.51 9.59983 19.25 10.3198 18.88 10.9898C18.7 11.3098 17.84 12.5198 17.58 12.8398C15.36 15.2998 12.64 17.2598 9.6 18.5898C9.33 18.7198 9.01 18.6098 8.88 18.3398C8.84 18.2498 8.82 18.1498 8.83 18.0498L9.03 16.1998C9.06 15.9098 8.85 15.6398 8.56 15.6098C7.2 15.4698 5.88 15.0998 4.66 14.4998C1.86 13.1098 0 10.6498 0 7.82983C0 3.49983 4.41 -0.000172364 9.85 -0.000172364C12.37 -0.0301724 14.83 0.779828 16.84 2.31983C18.71 3.69983 19.78 5.91983 19.71 8.23983Z" fill="#00C200"/>
<path d="M6.54994 9.56967C6.64994 9.65967 6.69994 9.78967 6.69994 9.92967C6.69994 10.2097 6.47994 10.4297 6.20994 10.4297H4.18994C3.90994 10.4297 3.68994 10.1997 3.68994 9.92967V6.11967C3.68994 5.98967 3.73994 5.85967 3.83994 5.75967C4.02994 5.55967 4.34994 5.55967 4.54994 5.74967C4.64994 5.84967 4.70994 5.97967 4.69994 6.11967V9.41967H6.20994C6.33994 9.41967 6.46994 9.46967 6.55994 9.56967H6.54994Z" fill="white"/>
<path d="M8.19018 6.00963V10.0396C8.19018 10.2596 8.01018 10.4296 7.80018 10.4296H7.57018C7.35018 10.4296 7.18018 10.2496 7.18018 10.0396V6.00963C7.18018 5.78963 7.36018 5.61963 7.57018 5.61963H7.79018C8.01018 5.61963 8.19018 5.78963 8.19018 6.00963Z" fill="white"/>
<path d="M12.8702 6.11963V9.90963C12.8702 10.1896 12.6502 10.4296 12.3602 10.4396C12.2302 10.4396 12.1102 10.3896 12.0202 10.2996C12.0002 10.2896 11.3202 9.39963 10.7502 8.65963C10.3202 8.10963 9.9502 7.61963 9.9502 7.61963V9.92963C9.9502 10.2096 9.7202 10.4296 9.4502 10.4296C9.1802 10.4296 8.9502 10.1996 8.9502 9.92963V6.14963C8.9502 5.86963 9.1602 5.63963 9.4402 5.61963C9.5902 5.61963 9.7402 5.67963 9.8402 5.79963C9.8602 5.82963 10.9002 7.17963 11.4902 7.94963C11.7202 8.24963 11.8802 8.45963 11.8802 8.45963V6.12963C11.8802 5.84963 12.1002 5.61963 12.3802 5.61963C12.6602 5.61963 12.8902 5.83963 12.8902 6.11963H12.8702Z" fill="white"/>
<path d="M14.6399 8.52992V9.42992H16.1499C16.4299 9.40992 16.6699 9.62992 16.6799 9.89992C16.6899 10.1699 16.4799 10.4199 16.2099 10.4299C16.1899 10.4299 16.1699 10.4299 16.1499 10.4299H14.1299C13.8499 10.4299 13.6299 10.1999 13.6299 9.92992V6.11992C13.6299 5.83992 13.8499 5.61992 14.1299 5.61992H16.1499C16.4299 5.59992 16.6699 5.81992 16.6799 6.08992C16.6899 6.35992 16.4799 6.60992 16.2099 6.61992C16.1899 6.61992 16.1699 6.61992 16.1499 6.61992H14.6399V7.51992H16.1499C16.4299 7.51992 16.6499 7.74992 16.6499 8.01992C16.6499 8.28992 16.4199 8.51992 16.1499 8.51992H14.6399V8.52992Z" fill="white"/>
</g>
<defs>
<clipPath id="clip0_42_265">
<rect width="19.71" height="18.64" fill="white"/>
</clipPath>
</defs>
</svg>
