<svg width="140" height="33" viewBox="0 0 140 33" fill="none" xmlns="http://www.w3.org/2000/svg">
<path d="M0 25.2818H14.402V20.7696H4.71598V15.4026H14.402V10.9592H4.71598V5.86474H14.402V1.35254H0V25.2818Z" fill="#1A256C"/>
<path d="M41.9171 10.3078C40.6177 8.57702 38.7943 7.70898 36.4469 7.70898C34.0995 7.70898 32.0379 8.56379 30.3971 10.2734C28.7563 11.983 27.9359 14.0446 27.9359 16.4608C27.9359 18.877 28.751 20.9677 30.3786 22.6641C32.0088 24.3631 34.0307 25.21 36.4469 25.21C38.8631 25.21 40.6177 24.3446 41.9171 22.6112V24.4557C41.9171 25.8001 41.5175 26.8375 40.7209 27.5653C39.9243 28.2957 38.8287 28.6583 37.4393 28.6583C35.3195 28.6583 33.8269 27.8591 32.9615 26.2659L29.2009 28.4201C29.9525 29.7883 31.0296 30.8231 32.4322 31.5297C33.8349 32.2363 35.4571 32.5883 37.3044 32.5883C39.7656 32.5883 41.8668 31.8923 43.6109 30.5029C45.3549 29.1135 46.2255 27.0969 46.2255 24.4531V8.18799H41.9198V10.3078H41.9171ZM40.5674 19.8271C39.6676 20.7057 38.5217 21.1424 37.1323 21.1424C35.7429 21.1424 34.597 20.7031 33.6972 19.8271C32.7974 18.9511 32.3476 17.8264 32.3476 16.4608C32.3476 15.0952 32.7974 14.0049 33.6972 13.1289C34.597 12.2529 35.7429 11.8136 37.1323 11.8136C38.5217 11.8136 39.6676 12.2529 40.5674 13.1289C41.4672 14.0075 41.9171 15.1164 41.9171 16.4608C41.9171 17.8052 41.4672 18.9511 40.5674 19.8271Z" fill="#1A256C"/>
<path d="M113.594 10.2046C112.273 8.54262 110.415 7.70898 108.023 7.70898C105.631 7.70898 103.789 8.57967 102.161 10.3237C100.531 12.0677 99.7184 14.2034 99.7184 16.7334C99.7184 19.2634 100.533 21.3991 102.161 23.1431C103.791 24.8871 105.744 25.7578 108.023 25.7578C110.415 25.7578 112.273 24.9268 113.594 23.2622V25.2788H118.003V8.18799H113.594V10.2046ZM112.244 20.2029C111.344 21.1027 110.209 21.5526 108.843 21.5526C107.478 21.5526 106.348 21.1027 105.459 20.2029C104.569 19.3031 104.125 18.1466 104.125 16.7334C104.125 15.3202 104.569 14.1637 105.459 13.2639C106.348 12.3641 107.475 11.9142 108.843 11.9142C110.212 11.9142 111.344 12.3641 112.244 13.2639C113.144 14.1637 113.594 15.3202 113.594 16.7334C113.594 18.1466 113.144 19.3031 112.244 20.2029Z" fill="#1A256C"/>
<path d="M137.557 10.3267C135.927 8.58265 133.963 7.71196 131.661 7.71196C129.359 7.71196 127.421 8.54295 126.125 10.2076V1.35254H121.716V25.2791H126.125V23.2625C127.424 24.9271 129.269 25.7581 131.661 25.7581C134.053 25.7581 135.927 24.8874 137.557 23.1434C139.188 21.3994 140 19.2637 140 16.7337C140 14.2037 139.185 12.068 137.557 10.324V10.3267ZM134.241 20.2059C133.342 21.1057 132.206 21.5556 130.841 21.5556C129.475 21.5556 128.345 21.1057 127.456 20.2059C126.567 19.3061 126.122 18.1496 126.122 16.7364C126.122 15.3232 126.567 14.1667 127.456 13.2669C128.345 12.3671 129.472 11.9172 130.841 11.9172C132.209 11.9172 133.342 12.3671 134.241 13.2669C135.141 14.1667 135.591 15.3232 135.591 16.7364C135.591 18.1496 135.141 19.3061 134.241 20.2059Z" fill="#1A256C"/>
<path d="M29.6271 7.71191H26.4143C20.5365 7.71191 17.5142 10.5357 17.3793 16.215V25.2817H21.8624V16.1488C21.8624 13.5923 23.0903 12.2956 25.5489 12.2956H26.3719C26.9039 10.9009 27.7163 9.6253 28.8146 8.48203C29.0766 8.20945 29.3465 7.95274 29.6244 7.71191H29.6271Z" fill="#1A256C"/>
<path d="M97.4583 20.7696H89.3601V1.35254H84.6442V25.2791H100.224C100.168 25.2209 100.113 25.168 100.057 25.1097C98.8583 23.8262 97.9902 22.3733 97.4583 20.7669V20.7696Z" fill="#1A256C"/>
<path d="M65.4177 0C60.8076 0 56.9146 1.58787 53.7362 4.76626C50.5578 7.94465 48.97 11.8376 48.97 16.4477C48.97 21.0578 50.5578 24.9508 53.7362 28.1291C56.9146 31.3049 60.8076 32.8954 65.4177 32.8954C70.0278 32.8954 73.9313 31.3075 77.1309 28.1291C80.3278 24.9508 81.9289 21.0578 81.9289 16.4477C81.9289 11.8376 80.3304 7.94465 77.1309 4.76626C73.9313 1.59052 70.0278 0 65.4177 0ZM74.0636 25.0619C73.6296 25.4906 73.1797 25.8823 72.7113 26.2316C71.179 27.3802 69.0301 27.1579 67.7598 25.7262C67.7439 25.705 67.7254 25.6865 67.7069 25.6627C66.471 24.2521 64.4305 24.2442 63.1947 25.6574C63.1708 25.6865 63.1417 25.7182 63.1179 25.7447C61.845 27.1738 59.696 27.3855 58.1664 26.2369C57.6953 25.885 57.2428 25.4933 56.8088 25.0593C54.4667 22.7145 53.2943 19.8431 53.2943 16.4451C53.2943 13.047 54.4667 10.1756 56.8088 7.83085C57.6795 6.96282 58.6216 6.25621 59.6352 5.71105C59.6458 5.70575 59.6564 5.70046 59.6669 5.69517C61.6782 4.62071 63.8669 5.56814 64.1209 8.29134C64.2665 9.86333 64.3247 11.9831 64.5893 13.7192C64.7402 14.7143 66.156 14.7143 66.3069 13.7192C66.5689 11.9937 66.6271 9.88186 66.7727 8.31516C67.0241 5.59725 69.2127 4.63659 71.2161 5.71105C72.2349 6.25886 73.1824 6.96546 74.0583 7.8335C76.4163 10.1783 77.5967 13.0497 77.5967 16.4477C77.5967 19.8458 76.4163 22.7171 74.0583 25.0619H74.0636Z" fill="#1A256C"/>
<path d="M14.4021 1.35226V5.86181H4.71606V4.37451C4.71606 2.70459 6.07369 1.34961 7.74361 1.34961H14.4021V1.35226Z" fill="#1A256C"/>
<path d="M4.71606 20.7668H14.4021V25.279H7.74361C6.07369 25.279 4.71606 23.9267 4.71606 22.2541V20.7642V20.7668Z" fill="#1A256C"/>
<path d="M17.3793 17.1622V25.2789H21.8624V16.1459C21.8624 13.5895 23.0903 12.2927 25.5489 12.2927C25.5489 12.2927 17.3793 12.0334 17.3793 17.1622Z" fill="#1A256C"/>
<path d="M36.4496 25.2126C38.797 25.2126 40.6204 24.3472 41.9198 22.6138V16.4608C41.9198 17.829 41.4699 18.9511 40.5701 19.8271C39.6703 20.7057 38.5244 21.1424 37.135 21.1424C35.7456 21.1424 34.5997 20.7031 33.6999 19.8271C32.8001 18.9511 32.3502 17.8264 32.3502 16.4608C32.3502 15.0952 32.8001 14.0049 33.6999 13.1289C34.5997 12.2529 35.7456 11.8136 37.135 11.8136C38.5244 11.8136 39.6703 12.2529 40.5701 13.1289C41.4699 14.0075 41.9198 15.1164 41.9198 16.4608V10.3078C40.6204 8.57702 38.797 7.70898 36.4496 7.70898C34.1022 7.70898 32.0406 8.56379 30.3998 10.2734C28.759 11.983 27.9386 14.0446 27.9386 16.4608C27.9386 18.877 28.7537 20.9677 30.3813 22.6641C32.0115 24.3631 34.0334 25.21 36.4496 25.21V25.2126Z" fill="#1A256C"/>
<path d="M137.557 23.1431C139.188 21.3991 140 19.2634 140 16.7334C140 14.2034 139.185 12.0677 137.557 10.3237C135.927 8.57967 133.963 7.70898 131.661 7.70898C129.359 7.70898 127.421 8.53997 126.125 10.2046V16.7334C126.125 15.3202 126.569 14.1637 127.458 13.2639C128.348 12.3641 129.475 11.9142 130.843 11.9142C132.211 11.9142 133.344 12.3641 134.244 13.2639C135.144 14.1637 135.594 15.3202 135.594 16.7334C135.594 18.1466 135.144 19.3031 134.244 20.2029C133.344 21.1027 132.209 21.5526 130.843 21.5526C129.478 21.5526 128.348 21.1027 127.458 20.2029C126.569 19.3031 126.125 18.1466 126.125 16.7334V23.2622C127.424 24.9268 129.269 25.7578 131.661 25.7578C134.053 25.7578 135.927 24.8871 137.557 23.1431Z" fill="#1A256C"/>
<path d="M113.594 16.7334C113.594 18.1466 113.144 19.3031 112.244 20.2029C111.344 21.1027 110.209 21.5526 108.843 21.5526C107.478 21.5526 106.348 21.1027 105.459 20.2029C104.569 19.3031 104.125 18.1466 104.125 16.7334C104.125 15.3202 104.569 14.1637 105.459 13.2639C106.348 12.3641 107.475 11.9142 108.843 11.9142C110.212 11.9142 111.344 12.3641 112.244 13.2639C113.144 14.1637 113.594 15.3202 113.594 16.7334V10.2046C112.273 8.54262 110.415 7.70898 108.023 7.70898C105.631 7.70898 103.789 8.57967 102.161 10.3237C100.531 12.0677 99.7184 14.2034 99.7184 16.7334C99.7184 19.2634 100.533 21.3991 102.161 23.1431C103.791 24.8871 105.744 25.7578 108.023 25.7578C110.415 25.7578 112.273 24.9268 113.594 23.2622V16.7334Z" fill="#1A256C"/>
<path d="M100.221 25.2788H92.6047C90.813 25.2788 89.3601 23.8285 89.3601 22.0369V20.7666H97.4609C97.9902 22.373 98.8582 23.8259 100.06 25.1094C100.115 25.1703 100.168 25.2259 100.224 25.2788H100.221Z" fill="#1A256C"/>
<path d="M64.1183 8.25673C63.851 5.55735 61.6703 4.62579 59.6696 5.69761C59.659 5.70025 59.6484 5.70555 59.6378 5.71084C58.6242 6.25865 57.6794 6.96526 56.8088 7.83329C54.4667 10.1781 53.2943 13.0495 53.2943 16.4475C53.2943 19.8455 54.4667 22.7169 56.8088 25.0617C57.2428 25.4957 57.6953 25.8874 58.169 26.2394C58.5554 26.5305 58.9841 26.7316 59.4235 26.8533L57.1925 30.7939C55.9593 30.0847 54.8054 29.2008 53.7362 28.1289C50.5578 24.9532 48.97 21.0576 48.97 16.4475C48.97 11.8374 50.5578 7.94445 53.7362 4.76606C53.7389 4.76076 53.7442 4.75812 53.7468 4.75547C54.5831 3.91919 55.6708 3.37931 56.8379 3.18877C63.544 2.09843 64.0865 7.76713 64.1183 8.25673Z" fill="#1A256C"/>
<path d="M52.4421 26.6787C59.0318 32.5671 63.1947 25.6572 63.1947 25.6572C63.1708 25.6863 63.1417 25.7181 63.1179 25.7445C61.845 27.1736 59.696 27.3853 58.1664 26.2368C57.6953 25.8848 57.2428 25.4931 56.8088 25.0591C54.4667 22.7143 53.2943 19.8429 53.2943 16.4449C53.2943 13.0468 54.4667 10.1754 56.8088 7.83069C56.9834 7.65602 57.1634 7.49459 57.3433 7.33316L55.2209 3.44287C54.7101 3.84778 54.2126 4.28709 53.7362 4.7661C50.5578 7.94449 48.97 11.8374 48.97 16.4475C48.97 20.3802 50.1291 23.7888 52.4421 26.6787Z" fill="#1A256C"/>
<path d="M66.778 8.25673C67.0452 5.55735 69.2259 4.62579 71.2266 5.69761C71.2372 5.70025 71.2478 5.70555 71.2584 5.71084C72.272 6.25865 73.2168 6.96526 74.0875 7.83329C76.4296 10.1781 77.6019 13.0495 77.6019 16.4475C77.6019 19.8455 76.4296 22.7169 74.0875 25.0617C73.6534 25.4957 73.2009 25.8874 72.7272 26.2394C72.3408 26.5305 71.9121 26.7316 71.4728 26.8533L73.7037 30.7939C74.937 30.0847 76.0908 29.2008 77.16 28.1289C80.3384 24.9532 81.9263 21.0576 81.9263 16.4475C81.9263 11.8374 80.3384 7.94445 77.16 4.76606C77.1573 4.76076 77.152 4.75812 77.1494 4.75547C76.3131 3.91919 75.2254 3.37931 74.0583 3.18877C67.3522 2.09843 66.8097 7.76713 66.778 8.25673Z" fill="#1A256C"/>
<path d="M78.4541 26.6787C71.8644 32.5671 67.7015 25.6572 67.7015 25.6572C67.7254 25.6863 67.7545 25.7181 67.7783 25.7445C69.0512 27.1736 71.2001 27.3853 72.7298 26.2368C73.2009 25.8848 73.6534 25.4931 74.0874 25.0591C76.4295 22.7143 77.6019 19.8429 77.6019 16.4449C77.6019 13.0442 76.4295 10.1754 74.0874 7.83069C73.9128 7.65602 73.7328 7.49459 73.5528 7.33316L75.6753 3.44287C76.1861 3.84778 76.6836 4.28709 77.16 4.7661C80.3383 7.94449 81.9262 11.8374 81.9262 16.4475C81.9262 20.3802 80.7671 23.7888 78.4541 26.6787Z" fill="#1A256C"/>
</svg>
