<svg width="20" height="21" viewBox="0 0 20 21" fill="none" xmlns="http://www.w3.org/2000/svg">
<g clip-path="url(#clip0_69_1321)">
<path fill-rule="evenodd" clip-rule="evenodd" d="M18.62 14.7799C19.89 12.2699 20.02 9.47987 19.21 7.00987C18.4 4.52987 16.64 2.36987 14.13 1.09987C13.33 0.689873 12.5 0.399873 11.66 0.229873C10.79 0.0398732 9.91002 -0.0301268 9.05002 0.00987316C8.97003 0.00987316 8.91002 0.0798732 8.91002 0.159873C8.91002 0.219873 8.95002 0.259873 8.99002 0.289873C11.08 1.36987 12.53 3.18987 13.21 5.26987C13.88 7.34987 13.76 9.67987 12.7 11.7799C11.64 13.8799 9.83002 15.3599 7.76002 16.0499C5.69002 16.7399 3.35002 16.6499 1.24002 15.5999C1.17002 15.5599 1.08002 15.5999 1.04002 15.6699C1.02002 15.7199 1.02002 15.7699 1.04002 15.8199C1.52002 16.5399 2.09002 17.2099 2.76002 17.7999C3.40002 18.3699 4.13002 18.8699 4.93002 19.2699C7.44002 20.5399 10.23 20.6699 12.7 19.8599C15.18 19.0499 17.34 17.2899 18.61 14.7799H18.62Z" fill="#FFD753"/>
<path fill-rule="evenodd" clip-rule="evenodd" d="M4.71005 1.21016L5.15005 3.41016L7.32005 3.85016C7.32005 3.85016 7.37005 3.89016 7.37005 3.92016C7.37005 3.94016 7.35005 3.96016 7.32005 3.97016L5.14005 4.42016L4.71005 6.62016C4.71005 6.62016 4.67005 6.67016 4.64005 6.67016C4.61005 6.67016 4.59005 6.64016 4.59005 6.62016L4.15005 4.42016L1.98005 3.98016C1.98005 3.98016 1.93005 3.94016 1.93005 3.91016C1.93005 3.89016 1.95005 3.87016 1.98005 3.86016L4.16005 3.41016L4.59005 1.21016C4.59005 1.21016 4.63005 1.16016 4.66005 1.16016C4.69005 1.16016 4.71005 1.19016 4.71005 1.21016Z" fill="#FFD753"/>
<path fill-rule="evenodd" clip-rule="evenodd" d="M2.25 10.08L1.93 8.47998L1.62 10.07C1.62 10.07 1.6 10.1 1.58 10.11L0 10.44L1.57 10.76C1.57 10.76 1.61 10.78 1.61 10.8L1.93 12.4L2.24 10.81C2.24 10.81 2.26 10.78 2.28 10.77L3.86 10.44L2.29 10.12C2.29 10.12 2.25 10.1 2.25 10.08Z" fill="#FFD753"/>
</g>
<defs>
<clipPath id="clip0_69_1321">
<rect width="19.72" height="20.37" fill="white"/>
</clipPath>
</defs>
</svg>
