<svg width="28" height="38" viewBox="0 0 28 38" fill="none" xmlns="http://www.w3.org/2000/svg">
<g clip-path="url(#clip0_72_1655)">
<path d="M25.4647 15.9867C25.2631 15.6955 24.8022 15.1131 24.7734 15.084C17.1108 6.75577 15.2096 1.89278 14.8351 0.582394C14.7199 0.232958 14.403 0 13.9997 0C13.5964 0 13.2795 0.232958 13.1931 0.582394C12.7898 1.86366 10.8886 6.72665 3.19725 15.1131C3.19725 15.1131 2.73634 15.6664 2.53469 15.9867C0.604653 18.6657 -0.259544 21.9854 0.057328 25.305C0.3742 28.5373 1.84334 31.4493 4.03264 33.6333C6.22194 35.8172 9.1314 37.3023 12.4154 37.6518C12.9627 37.71 13.4812 37.7391 14.0285 37.7391C17.4853 37.7391 20.7405 36.5161 23.333 34.2156C26.3001 31.5949 27.9997 27.8384 27.9997 23.9073C27.9997 21.0535 27.1355 18.3163 25.4647 15.9867ZM12.8186 33.808C8.20959 33.3129 4.40712 29.4983 3.94622 24.9265L5.47297 24.7809C5.84745 28.6538 9.07379 31.8861 12.9915 32.2938L12.8186 33.808Z" fill="#1B2A6B"/>
</g>
<defs>
<clipPath id="clip0_72_1655">
<rect width="28" height="37.7391" fill="white"/>
</clipPath>
</defs>
</svg>
