<svg width="74" height="83" viewBox="0 0 74 83" fill="none" xmlns="http://www.w3.org/2000/svg">
<g clip-path="url(#clip0_179_2469)">
<path d="M13.7081 41.7688V38.6919H19.2366V52.2858H15.7574V41.7688H13.7081Z" fill="#228400"/>
<path d="M21.1879 45.3455C21.1879 43.2298 21.6199 41.5539 22.4825 40.3177C23.3451 39.0815 24.7247 38.4626 26.6199 38.4626C28.515 38.4626 29.8773 39.0815 30.7471 40.3177C31.6169 41.5553 32.0518 43.2312 32.0518 45.3455C32.0518 47.4598 31.6169 49.1587 30.7471 50.402C29.8773 51.6454 28.502 52.2671 26.6199 52.2671C24.7377 52.2671 23.3465 51.6454 22.4825 50.402C21.6184 49.1587 21.1879 47.4727 21.1879 45.3455ZM28.7656 45.3455C28.7656 44.128 28.6201 43.1954 28.3307 42.548C28.0412 41.9005 27.4709 41.5768 26.6199 41.5768C25.7688 41.5768 25.1769 41.9034 24.8802 42.558C24.5836 43.2112 24.4352 44.1408 24.4352 45.3455C24.4352 46.5502 24.5836 47.5028 24.8802 48.1631C25.1769 48.8235 25.7558 49.153 26.6199 49.153C27.4839 49.153 28.0412 48.8235 28.3307 48.1631C28.6201 47.5028 28.7656 46.5645 28.7656 45.3455Z" fill="#228400"/>
<path d="M33.6375 45.3455C33.6375 43.2298 34.0695 41.5539 34.9321 40.3177C35.7947 39.0815 37.1743 38.4626 39.0694 38.4626C40.9646 38.4626 42.3269 39.0815 43.1967 40.3177C44.0665 41.5553 44.5014 43.2312 44.5014 45.3455C44.5014 47.4598 44.0665 49.1587 43.1967 50.402C42.3269 51.6454 40.9516 52.2671 39.0694 52.2671C37.1872 52.2671 35.7961 51.6454 34.9321 50.402C34.068 49.1587 33.6375 47.4727 33.6375 45.3455ZM41.2152 45.3455C41.2152 44.128 41.0697 43.1954 40.7803 42.548C40.4908 41.9005 39.9205 41.5768 39.0694 41.5768C38.2183 41.5768 37.6265 41.9034 37.3298 42.558C37.0332 43.2112 36.8848 44.1408 36.8848 45.3455C36.8848 46.5502 37.0332 47.5028 37.3298 48.1631C37.6265 48.8235 38.2054 49.153 39.0694 49.153C39.9335 49.153 40.4908 48.8235 40.7803 48.1631C41.0697 47.5028 41.2152 46.5645 41.2152 45.3455Z" fill="#228400"/>
<path d="M51.3144 39.3078C51.9134 39.8721 52.213 40.6671 52.213 41.6913C52.213 42.7155 51.9134 43.512 51.3144 44.0764C50.7153 44.6407 49.9448 44.9229 49.0045 44.9229C48.0641 44.9229 47.2548 44.6407 46.6557 44.0764C46.0566 43.512 45.7571 42.7184 45.7571 41.6913C45.7571 40.6643 46.0566 39.8707 46.6557 39.3078C47.2548 38.7434 48.0382 38.4612 49.0045 38.4612C49.9708 38.4612 50.7153 38.7434 51.3144 39.3078ZM58.3794 38.6546L50.9183 52.2871H47.7286L55.1896 38.6546H58.3794ZM48.2311 42.6253C48.4112 42.8502 48.656 42.9619 48.9656 42.9619C49.2752 42.9619 49.5459 42.8502 49.7389 42.6253C49.9319 42.4018 50.0284 42.0896 50.0284 41.6928C50.0284 41.296 49.9319 40.9851 49.7389 40.7602C49.5459 40.5368 49.2882 40.4236 48.9656 40.4236C48.643 40.4236 48.4112 40.5354 48.2311 40.7602C48.0511 40.9851 47.9604 41.296 47.9604 41.6928C47.9604 42.0896 48.0497 42.4018 48.2311 42.6253ZM59.4436 46.8453C60.0355 47.4096 60.3321 48.2047 60.3321 49.2303C60.3321 50.2559 60.0355 51.0538 59.4436 51.6239C58.8503 52.194 58.077 52.4791 57.1236 52.4791C56.1703 52.4791 55.4128 52.194 54.8138 51.6239C54.2147 51.0538 53.9151 50.2559 53.9151 49.2303C53.9151 48.2047 54.2147 47.4096 54.8138 46.8453C55.4128 46.2809 56.1833 45.9987 57.1236 45.9987C58.064 45.9987 58.8503 46.2809 59.4436 46.8453ZM56.3705 50.1814C56.5505 50.4063 56.8025 50.518 57.1236 50.518C57.4448 50.518 57.681 50.4063 57.8682 50.1814C58.0554 49.958 58.149 49.64 58.149 49.2303C58.149 48.8206 58.0554 48.5227 57.8682 48.2978C57.681 48.0743 57.4333 47.9611 57.1236 47.9611C56.814 47.9611 56.5505 48.0729 56.3705 48.2978C56.1905 48.5227 56.0997 48.8335 56.0997 49.2303C56.0997 49.6271 56.189 49.958 56.3705 50.1814Z" fill="#228400"/>
<path d="M17.5344 63.0148H15.4909L12.0736 57.858V63.0148H10.0302V54.6135H12.0736L15.4909 59.819V54.6135H17.5344V63.0148Z" fill="#228400"/>
<path d="M24.1775 61.4817H21.0108L20.4851 63.0144H18.3351L21.4298 54.6719H23.7829L26.8776 63.0144H24.7031L24.1775 61.4817ZM23.6519 59.9375L22.6006 56.8478L21.5378 59.9375H23.6519Z" fill="#228400"/>
<path d="M33.7353 54.6118V56.2276H31.4413V63.0131H29.3863V56.2276H27.1167V54.6118H33.7353Z" fill="#228400"/>
<path d="M36.578 54.6118V59.4606C36.578 60.015 36.7033 60.439 36.9539 60.7326C37.2044 61.0263 37.5688 61.1724 38.0469 61.1724C38.525 61.1724 38.8893 61.0263 39.1399 60.7326C39.3905 60.439 39.5158 60.015 39.5158 59.4606V54.6118H41.5592V59.4606C41.5592 60.2527 41.4037 60.9203 41.0927 61.4632C40.7816 62.0061 40.3582 62.4143 39.8211 62.6865C39.2839 62.9601 38.6762 63.0961 37.9994 63.0961C37.3225 63.0961 36.7249 62.9615 36.2079 62.6922C35.6895 62.4229 35.2834 62.0146 34.9896 61.4675C34.6944 60.9203 34.5475 60.2513 34.5475 59.4592V54.6104H36.578V54.6118Z" fill="#228400"/>
<path d="M47.2592 63.0146L45.4317 59.8417H44.9651V63.0146H42.9216V54.6133H46.4109C47.0806 54.6133 47.6451 54.7279 48.1074 54.9585C48.5696 55.1891 48.9152 55.5028 49.1471 55.9039C49.3775 56.3036 49.4942 56.7619 49.4942 57.2762C49.4942 57.8864 49.3242 58.405 48.9858 58.8333C48.6474 59.2616 48.1549 59.5538 47.5097 59.7128L49.5172 63.016H47.2592V63.0146ZM44.9651 58.4508H46.2309C46.637 58.4508 46.9351 58.362 47.1267 58.1829C47.3182 58.0053 47.4132 57.7417 47.4132 57.3922C47.4132 57.0427 47.3153 56.7978 47.1209 56.6072C46.9251 56.4167 46.6284 56.3222 46.2309 56.3222H44.9651V58.4494V58.4508Z" fill="#228400"/>
<path d="M55.7527 61.4817H52.586L52.0603 63.0144H49.9103L53.005 54.6719H55.3581L58.4528 63.0144H56.2783L55.7527 61.4817ZM55.2271 59.9375L54.1758 56.8478L53.113 59.9375H55.2271Z" fill="#228400"/>
<path d="M61.2841 61.4575H64.0073V63.0146H59.2406V54.6133H61.2841V61.4589V61.4575Z" fill="#228400"/>
<path d="M13.8507 30.2961C11.5826 29.0341 9.94236 27.5516 8.8551 26.3984C10.877 25.8255 14.3965 25.1221 18.6822 25.7725C21.9152 26.2638 24.4339 27.3525 26.0799 28.2291C25.622 27.9813 21.8994 25.9816 19.7234 25.2195C17.4913 24.4374 14.0437 23.9633 8.94151 25.6579C13.5526 21.8304 17.0175 21.3147 19.3663 21.5854C22.5287 21.9507 23.9918 23.7814 28.6865 25.0376C32.0562 25.9401 34.9868 25.983 36.9165 25.8828C35.7889 27.5415 33.3235 30.6027 29.1084 32.1741C21.9973 34.8255 15.4406 31.1771 13.8536 30.2947L13.8507 30.2961Z" fill="#228400"/>
<path d="M20.3225 19.7663C19.3029 19.9224 18.0687 20.0284 16.237 20.5799C12.7851 21.6185 10.252 23.3216 8.67078 24.5779C9.7998 22.18 11.8332 18.7507 15.3988 15.6982C17.7102 13.72 19.8876 12.574 21.0454 12.0096C24.4886 10.3337 27.6453 9.70913 29.8184 9.45988C29.2121 9.52577 24.2827 10.0744 21.6761 10.7863C19.0005 11.5169 15.3628 13.3518 11.5884 18.374C13.4576 11.6243 16.4472 8.82388 18.891 7.52465C22.1816 5.77564 24.8198 6.56492 30.1841 4.6569C34.0349 3.28605 36.8863 1.38091 38.6777 0.00146484C38.7397 6.09364 36.424 9.80653 35.3828 11.249C30.4434 18.0961 21.175 19.6374 20.3196 19.7677L20.3225 19.7663Z" fill="#228400"/>
<path d="M49.039 12.0496C51.0738 12.6914 53.0511 13.5279 54.9448 14.5306C55.4243 14.7713 55.8808 15.0506 56.3474 15.3156C56.5821 15.446 56.8068 15.5921 57.0343 15.7339L57.7169 16.1622C57.9401 16.3111 58.1605 16.463 58.3837 16.6148L58.7163 16.8426L58.8819 16.9572L59.0432 17.0775L59.6898 17.5574C59.7978 17.6376 59.9058 17.7164 60.0124 17.798L60.3263 18.0501C62.0141 19.3837 63.5824 20.872 65.0138 22.485C66.4366 24.1065 67.7154 25.8569 68.8358 27.7062L69.0475 28.0514C69.1152 28.1675 69.1814 28.2864 69.2476 28.4038L69.6437 29.1115L69.743 29.2891L69.8352 29.4696L70.0195 29.8305L70.3882 30.5539L70.7295 31.2916C70.8404 31.538 70.9628 31.7815 71.0621 32.0322L71.3746 32.7828C71.4265 32.9089 71.4798 33.032 71.5287 33.1581L71.6699 33.5391C72.4374 35.5675 73.0163 37.6674 73.4109 39.8046C73.8113 41.9418 73.9884 44.1177 73.997 46.2936C73.997 47.3823 73.9553 48.4709 73.8588 49.5567C73.7637 50.6425 73.6169 51.724 73.4224 52.7983C73.228 53.8727 72.9875 54.9384 72.6981 55.9927C72.4086 57.0469 72.0688 58.0869 71.6843 59.1111C70.9153 61.1595 69.9562 63.1391 68.8315 65.0214C66.5777 68.7829 63.64 72.1435 60.1996 74.8909C56.7636 77.644 52.8206 79.7755 48.6228 81.1535C47.5744 81.5002 46.5088 81.7952 45.4316 82.0445C44.3544 82.2923 43.2671 82.49 42.1727 82.6418C41.0782 82.7937 39.978 82.8968 38.8749 82.9541C37.7718 83.01 36.6658 83.0128 35.5627 82.9727C34.4596 82.9312 33.3565 82.8395 32.2606 82.702C31.1647 82.5602 30.0746 82.3711 28.9959 82.1347C26.8373 81.6606 24.7189 81.0017 22.6826 80.1494C20.6463 79.2971 18.6864 78.2643 16.833 77.0696C14.9811 75.8735 13.2371 74.5141 11.6314 73.0086C10.0257 71.5046 8.5511 69.863 7.23775 68.1025C5.92295 66.3435 4.77089 64.4641 3.79451 62.5017C1.83744 58.5782 0.607615 54.3024 0.177031 49.9592C0.0690248 48.8734 0.00566127 47.7833 -0.00585938 46.6947V45.8782L0.0215022 45.0617L0.0503038 44.2452L0.112227 43.4316C0.282157 41.2614 0.642177 39.107 1.20093 37.0056C1.23549 36.8739 1.26717 36.7421 1.30173 36.6117L1.41838 36.2207L1.65167 35.44C1.72512 35.1778 1.82016 34.9243 1.90657 34.6665L2.17298 33.8972C2.21475 33.7683 2.26659 33.6423 2.31555 33.5162L2.46388 33.1366L2.76198 32.3789L3.09032 31.634C3.20264 31.3862 3.30633 31.1369 3.42441 30.892C4.35327 28.9324 5.45493 27.0573 6.71356 25.2969C7.97507 23.5393 9.38635 21.8919 10.933 20.3879C12.4782 18.8809 14.1631 17.5216 15.9502 16.3255C19.5231 13.9276 23.5179 12.1814 27.6768 11.2217C23.5942 12.4636 19.7564 14.4003 16.3736 16.9171C12.9866 19.4267 10.0704 22.5322 7.77634 26.0188C5.47509 29.5025 3.80172 33.3787 2.87142 37.4168C2.40628 39.4351 2.11538 41.4906 2.00881 43.5533L1.96993 44.3269L1.96273 45.1018L1.95697 45.8768L1.97713 46.6503C2.01745 47.6816 2.09522 48.7116 2.22195 49.7343C2.46964 51.7813 2.90742 53.8025 3.51802 55.7663C4.12573 57.7317 4.90338 59.644 5.85383 61.4675C6.8014 63.2924 7.91171 65.0314 9.15882 66.6644C10.4074 68.2973 11.8057 69.8143 13.3221 71.2009C14.8414 72.5846 16.4715 73.8466 18.2083 74.9467C19.9436 76.0483 21.7754 76.9951 23.6763 77.7758C25.5743 78.5608 27.5458 79.171 29.5532 79.6065C30.557 79.8242 31.5708 79.9975 32.5904 80.1265C33.61 80.2525 34.6367 80.3327 35.6635 80.3728C36.6903 80.4129 37.7214 80.4115 38.7482 80.3628C39.7749 80.3127 40.8003 80.2181 41.8184 80.0792C42.8366 79.9402 43.8489 79.7583 44.8512 79.5306C45.8535 79.3014 46.8443 79.0263 47.8221 78.7126C49.7777 78.0838 51.6815 77.2859 53.4946 76.3176C55.3091 75.3521 57.0372 74.2248 58.6587 72.9614C60.2803 71.698 61.788 70.287 63.1604 68.7557C64.5314 67.223 65.777 65.5771 66.8643 63.831C67.9501 62.0834 68.8775 60.2384 69.6408 58.3275C70.0224 57.3721 70.3637 56.3995 70.6589 55.4125C70.9527 54.4256 71.2018 53.4243 71.4078 52.4144C72.2358 48.3749 72.3352 44.1779 71.7203 40.0811C71.4092 38.0327 70.9124 36.0115 70.2471 34.0419L70.1247 33.6723C70.0829 33.5492 70.0339 33.4288 69.9893 33.3071L69.7157 32.5765C69.6293 32.3316 69.5198 32.0952 69.4219 31.8531L69.1195 31.1326L68.7897 30.425L68.6241 30.0712L68.542 29.8936L68.4527 29.7202L68.0956 29.0241C68.0351 28.908 67.9775 28.792 67.917 28.676L67.7255 28.3351C66.7174 26.5073 65.5438 24.7669 64.2318 23.1324C62.9113 21.5038 61.4438 19.9882 59.8598 18.6002L59.5631 18.3381C59.4623 18.2535 59.36 18.1705 59.2578 18.0874L58.6458 17.586L58.4931 17.4614L58.3361 17.3425L58.0208 17.1033C57.8105 16.9443 57.6017 16.7824 57.39 16.6249L56.742 16.1679C56.526 16.0161 56.3114 15.8599 56.0882 15.7195C55.6432 15.4345 55.2054 15.1351 54.746 14.8701C52.933 13.7729 51.0191 12.8317 49.0361 12.0496H49.039Z" fill="#228400"/>
</g>
<defs>
<clipPath id="clip0_179_2469">
<rect width="74" height="83" fill="white"/>
</clipPath>
</defs>
</svg>
