<svg width="75" height="75" viewBox="0 0 75 75" fill="none" xmlns="http://www.w3.org/2000/svg">
<g clip-path="url(#clip0_179_2466)">
<path d="M37.5 0C16.7892 0 0 16.7892 0 37.5C0 58.2108 16.7892 75 37.5 75C58.2108 75 75 58.2108 75 37.5C75 16.7892 58.2108 0 37.5 0ZM65.4139 16.7296L66.1964 17.8724C63.8861 21.1593 63.4469 21.7879 63.218 22.0438L63.2234 22.0523C63.866 21.5428 64.6917 20.9745 65.6126 20.3443L67.1629 19.2835L67.7783 20.1827L62.1595 24.0286L61.4095 22.933C63.8992 19.4668 64.35 18.8459 64.558 18.5961L64.5526 18.5876C63.8884 19.1033 63.0619 19.6701 62.0552 20.3598L60.4168 21.4817L59.7966 20.5763L65.4155 16.7304L65.4139 16.7296ZM63.7631 14.8369L58.7675 19.4644L57.9379 18.5683L62.9335 13.9407L63.7631 14.8369ZM59.26 10.6121L57.3309 12.9781C58.016 12.7353 59.6698 12.0858 60.6526 11.7479L61.742 12.6363L58.6987 13.5881L57.4647 17.9358L56.4147 17.0791L57.4098 13.851L56.3899 14.1317L54.9564 15.8899L54.024 15.1291L58.3284 9.85206L59.2608 10.6129L59.26 10.6121ZM50.3869 10.7869L51.4469 11.3776C51.2235 11.8995 51.1794 12.4446 51.7237 12.7477C52.2479 13.0399 52.6253 12.8196 52.8719 12.3765C53.1441 11.8879 53.0621 11.4696 52.5093 10.6918C51.76 9.64021 51.5992 8.99072 52.0917 8.10696C52.6229 7.15283 53.5995 6.84201 54.675 7.44201C56.0134 8.18737 55.8394 9.2768 55.425 10.0608L54.3812 9.47938C54.5366 9.11984 54.7276 8.57088 54.1887 8.27088C53.7673 8.03582 53.4263 8.20438 53.2013 8.60876C52.9631 9.03711 53.042 9.3433 53.5585 10.0562C54.351 11.1441 54.5637 11.8902 54.0093 12.8861C53.4889 13.8201 52.4799 14.2701 51.2234 13.5704C49.8557 12.8088 49.9268 11.7008 50.3861 10.7884L50.3869 10.7869ZM44.9026 3.84201L48.2807 4.72887L48.0093 5.76108L45.7956 5.17964L45.3742 6.78247L47.4881 7.33763L47.2191 8.36134L45.1052 7.80619L44.6026 9.71907L46.9755 10.3423L46.5634 11.3188L43.1714 10.4281L44.901 3.84201H44.9026ZM39.3881 3.13299L39.7678 6.06418C39.8884 6.98428 39.9912 8.0049 40.0129 8.7201L40.033 8.72165C40.1722 8.03892 40.5062 7.04536 40.7706 6.1732L41.6157 3.3201L42.8869 3.4268L40.6098 10.0693L39.1925 9.95026L38.0776 3.02242L39.3866 3.13222L39.3881 3.13299ZM63.801 37.5008C63.801 52.0268 52.0253 63.8026 37.4992 63.8026C22.9732 63.8026 11.1974 52.0268 11.1974 37.5008C11.1974 22.9747 22.974 11.1982 37.5 11.1982C52.026 11.1982 63.8018 22.974 63.8018 37.5L63.801 37.5008ZM36.1979 3.11907L36.5613 9.91856L35.342 9.9835L34.9786 3.18402L36.1979 3.11907ZM33.1005 3.3116L33.2946 4.36082L31.8642 4.62526L32.9072 10.2727L31.7064 10.4946L30.6634 4.84716L29.233 5.1116L29.0389 4.06237L33.1013 3.31237L33.1005 3.3116ZM27.225 4.6183L29.3196 11.0977L28.1575 11.4735L26.0629 4.99407L27.225 4.6183ZM22.1722 6.48247C23.5523 5.81753 24.3425 6.58686 24.7454 7.37706L23.6691 7.89588C23.4649 7.56186 23.1255 7.09021 22.5704 7.35773C22.1358 7.56727 22.0771 7.94304 22.2781 8.35902C22.4907 8.80052 22.7869 8.91263 23.6668 8.90026C25.0129 8.87861 25.7451 9.13454 26.2392 10.1613C26.7031 11.1247 26.4905 12.2088 25.1946 12.8327C23.7843 13.5124 22.9191 12.8165 22.4374 11.9157L23.5307 11.3892C23.8291 11.8724 24.249 12.2219 24.8103 11.9521C25.3508 11.6915 25.3887 11.2562 25.1683 10.8C24.9255 10.2959 24.5358 10.1227 23.5817 10.1258C22.2912 10.1327 21.6673 9.88995 21.2281 8.97835C20.7541 7.99407 21.0626 7.01753 22.1722 6.48325V6.48247ZM16.1026 10.3299C19.4644 12.5312 20.107 12.9495 20.3706 13.1706L20.3783 13.1644C19.8479 12.5389 19.2526 11.7325 18.5923 10.8325L17.4812 9.31778L18.3595 8.67294L22.3887 14.1634L21.3178 14.949C17.7711 12.5745 17.1356 12.1438 16.8796 11.9443L16.8719 11.9505C17.4085 12.5969 18.0031 13.4049 18.7253 14.3884L19.9005 15.9897L19.016 16.6392L14.9869 11.1487L16.1033 10.3291L16.1026 10.3299ZM13.2147 12.7369L13.9887 13.4714L12.4137 15.1322L13.616 16.2727L15.1198 14.6869L15.8876 15.4152L14.3838 17.001L15.8188 18.3619L17.5075 16.5812L18.1655 17.4124L15.7523 19.957L10.8108 15.2714L13.2139 12.7376L13.2147 12.7369ZM8.12784 18.6711C8.98144 17.3985 10.0523 17.6621 10.8 18.1392L10.1343 19.1312C9.78943 18.9464 9.25747 18.7113 8.91418 19.2232C8.6451 19.6237 8.78505 19.9778 9.16933 20.2353C9.5768 20.5082 9.8884 20.4549 10.6415 19.9987C11.7912 19.2982 12.5521 19.1482 13.4985 19.7838C14.3869 20.3791 14.7518 21.4222 13.9508 22.6168C13.0786 23.9173 11.9799 23.7549 11.1085 23.2222L11.7843 22.2139C12.2861 22.4791 12.8258 22.568 13.1729 22.0508C13.507 21.5521 13.3191 21.1577 12.8985 20.8755C12.4338 20.5639 12.0101 20.6111 11.1889 21.0974C10.0794 21.757 9.4183 21.8637 8.57784 21.3C7.67088 20.6915 7.44201 19.6933 8.12784 18.6704V18.6711ZM10.1134 59.7742C9.19407 58.6392 9.66881 57.6827 10.4111 57.0302L11.1232 57.91C10.7327 58.2966 10.4915 58.7644 10.8572 59.216C11.2098 59.6513 11.6227 59.5832 12.0039 59.2747C12.4245 58.9338 12.508 58.5363 12.3116 57.6619C12.0441 56.4789 12.1446 55.8503 12.9054 55.234C13.7273 54.5691 14.7 54.6232 15.4229 55.5162C16.3222 56.6265 15.7639 57.532 15.109 58.0863L14.4077 57.2204C14.6776 56.9552 15.0495 56.533 14.6876 56.0861C14.4046 55.7366 14.042 55.7706 13.6948 56.0521C13.326 56.3505 13.2812 56.6482 13.4714 57.4531C13.7637 58.6832 13.6732 59.4147 12.8157 60.1082C12.0116 60.7593 10.9577 60.818 10.1134 59.775V59.7742ZM15.184 64.8271L12.7763 62.6126L17.2384 57.7608L19.6361 59.966L18.9371 60.726L17.366 59.2809L16.2796 60.4616L17.7804 61.8418L17.0869 62.5956L15.5861 61.2155L14.2902 62.6242L15.975 64.1737L15.184 64.8263V64.8271ZM18.9928 67.558C20.0026 63.5698 20.1881 62.8531 20.2856 62.5554L20.2778 62.55C19.8696 63.2536 19.3353 64.0639 18.6835 65.049L17.6235 66.6526L16.7698 66.0881L20.4046 60.5892L21.4825 61.3013C20.5693 65.0644 20.3969 65.7835 20.2825 66.0951L20.2902 66.1005C20.6814 65.41 21.2149 64.599 21.8103 63.6982L22.8131 62.1812L23.6613 62.7418L20.0265 68.2407L18.9928 67.558ZM26.032 69.1353C25.6137 70.0817 24.7021 70.6144 23.475 70.0724C22.1397 69.4817 22.125 68.4139 22.4884 67.4946L23.5237 67.9523C23.3528 68.4742 23.3513 69.0008 23.8825 69.235C24.3943 69.4616 24.7314 69.2126 24.9302 68.7642C25.149 68.2686 25.0415 67.8773 24.4678 67.1884C23.6899 66.2582 23.492 65.6528 23.8887 64.7567C24.3162 63.7894 25.207 63.3943 26.2577 63.8582C27.5644 64.4358 27.4809 65.4959 27.1508 66.2884L26.1317 65.8376C26.2508 65.4781 26.3892 64.933 25.8634 64.7003C25.4521 64.5186 25.1451 64.7142 24.9642 65.1232C24.7724 65.557 24.8683 65.8423 25.4041 66.4716C26.2253 67.4327 26.4781 68.1247 26.032 69.1338V69.1353ZM28.159 71.6459L27.0673 71.3196L28.9554 65.0049L30.0472 65.3312L28.159 71.6459ZM34.4923 67.2765L33.1546 67.0477L32.2152 72.5265L31.0925 72.334L32.032 66.8551L30.6943 66.6263L30.8691 65.608L34.667 66.259L34.4923 67.2773V67.2765ZM36.3379 72.9108L35.1997 72.8544L35.5253 66.2714L36.6634 66.3278L36.3379 72.9108ZM40.875 72.7678L39.5528 72.8714L37.4644 66.4237L38.6861 66.3278L39.4848 69.0696C39.7369 69.9302 39.9881 70.8897 40.118 71.5701L40.1366 71.5686C40.1606 70.8951 40.3152 69.8946 40.425 69.0209L40.7652 66.1647L41.9513 66.0719L40.8742 72.7678H40.875ZM44.2113 72.3039L42.6495 65.9003L45.8142 65.1278L46.0593 66.1314L43.9856 66.6371L44.366 68.1959L46.3461 67.7126L46.5889 68.7077L44.6088 69.191L45.0626 71.0505L47.2863 70.5077L47.3907 71.5276L44.2129 72.3031L44.2113 72.3039ZM53.1912 69.2799C51.8899 69.9425 51.0526 69.2799 50.5693 68.4178L51.5784 67.9044C51.8753 68.3667 52.2827 68.7 52.8 68.4363C53.2987 68.182 53.3188 67.7637 53.0961 67.3268C52.8503 66.8443 52.4783 66.6804 51.5822 66.6905C50.3698 66.7059 49.7753 66.4771 49.3307 65.6049C48.8505 64.6631 49.1064 63.7222 50.1301 63.201C51.4036 62.5523 52.1729 63.2869 52.5789 64.0423L51.5861 64.5479C51.3827 64.2286 51.0472 63.7771 50.5345 64.0384C50.1332 64.2425 50.0915 64.6044 50.2948 65.0026C50.5098 65.4255 50.792 65.5307 51.6186 65.5129C52.882 65.4827 53.5786 65.724 54.0796 66.7067C54.549 67.6291 54.3874 68.6722 53.1912 69.2807V69.2799ZM58.8936 65.5399L56.151 63.7894L56.1812 64.8008L57.4755 66.5745L56.5686 67.2363L52.6832 61.9113L53.5902 61.2495L55.3314 63.6363C55.2619 62.9436 55.0345 61.2533 54.9433 60.2613L56.0026 59.4881L56.1966 62.5353L59.9134 64.7946L58.892 65.5392L58.8936 65.5399ZM60.975 63.7662L56.4611 58.9624L57.2915 58.1822L61.8054 62.9861L60.975 63.7662ZM65.0536 59.3954C61.1923 57.9758 60.4987 57.7168 60.2134 57.5884L60.2072 57.5954C60.8644 58.0747 61.6144 58.691 62.5268 59.441L64.0113 60.6619L63.3611 61.4521L58.2704 57.2644L59.0907 56.267C62.7379 57.5667 63.4353 57.8134 63.733 57.9603L63.7392 57.9534C63.0936 57.4918 62.3428 56.8771 61.5085 56.1912L60.1044 55.0361L60.75 54.2513L65.8407 58.4389L65.0536 59.3954Z" fill="#2E5DED"/>
<path d="M55.159 29.3157C54.8103 28.7095 54.0355 28.5007 53.4293 28.8495C51.917 29.7201 50.492 30.7368 49.1938 31.8711C48.6015 32.3891 48.0479 32.9242 47.5237 33.4701L43.476 26.3837L38.4355 17.6559C38.0744 17.0312 37.401 16.6585 36.6804 16.6871C35.959 16.7141 35.3164 17.1355 35.0041 17.7858L30.6301 26.8817L25.6801 37.5672L25.6677 37.5951C24.842 39.5312 24.5018 41.584 24.6564 43.6956C25.1574 50.5438 30.8752 55.8386 37.7195 55.8386C37.7884 55.8386 37.8587 55.8386 37.9283 55.8371C41.4881 55.7814 44.7958 54.3293 47.2414 51.7492C49.6886 49.1683 50.9621 45.7894 50.8275 42.2358C50.7541 40.2866 50.2631 38.4247 49.3685 36.7005L48.8381 35.7719C49.4574 35.0845 50.1293 34.4172 50.8608 33.7778C52.0345 32.7525 53.3234 31.8324 54.6927 31.0446C55.2989 30.6958 55.5077 29.9211 55.1582 29.3149L55.159 29.3157ZM47.6072 37.6384C48.3595 39.0943 48.7724 40.667 48.8342 42.3123C48.9479 45.3247 47.8685 48.1886 45.794 50.3768C43.7203 52.5641 40.9159 53.7951 37.8981 53.8422C37.8386 53.843 37.7798 53.8438 37.7211 53.8438C31.9198 53.8438 27.0726 49.3554 26.6481 43.551C26.5175 41.7641 26.8036 40.0291 27.4987 38.393L32.4355 27.7345L36.7592 18.7438L41.7456 27.3788L46.1257 35.0458C44.0056 37.6361 42.5304 40.4219 41.5074 43.0855C41.1796 42.1933 40.7365 41.2801 40.1458 40.3755C38.7115 38.1804 37.7072 37.3252 36.4577 36.5891C35.8546 36.2342 35.0783 36.4345 34.7234 37.0376C34.3685 37.6407 34.5695 38.417 35.1719 38.7719C36.0007 39.2598 36.7368 39.7902 38.0257 41.7618C40.0051 44.7904 39.9417 47.9636 39.7283 49.5866C39.6386 50.2693 40.111 50.8995 40.7914 51.0038C40.8564 51.0139 40.9213 51.0185 40.9855 51.0185C41.5902 51.0185 42.1237 50.5848 42.2319 49.9708C42.8621 46.3855 44.2886 41.6582 47.4827 37.4203L47.6072 37.6391V37.6384Z" fill="#2E5DED"/>
</g>
<defs>
<clipPath id="clip0_179_2466">
<rect width="75" height="75" fill="white"/>
</clipPath>
</defs>
</svg>
