<svg width="83" height="91" viewBox="0 0 83 91" fill="none" xmlns="http://www.w3.org/2000/svg">
<g clip-path="url(#clip0_179_2487)">
<path d="M82.9999 16.4652C68.6884 18.4451 55.431 25.8763 46.6373 37.4532C45.6585 38.7421 44.7358 40.0766 43.9075 41.4684C43.7194 41.7842 43.5356 42.1035 43.3623 42.4282C43.3361 42.477 43.3098 42.5267 43.2844 42.5764C43.2774 42.59 42.9156 42.4585 42.8981 42.4524C42.433 42.2988 42.1552 42.3903 42.2628 41.8673C44.3682 31.6408 43.7771 20.9493 41.5404 10.7971C40.7367 7.14966 39.7671 3.47498 38.3818 0C31.8555 12.4519 29.7605 28.8001 38.1088 40.9929C38.2694 41.2273 38.4343 41.4591 38.6102 41.6821C33.866 40.8596 28.7411 43.238 24.8925 45.8007C21.1073 48.3211 17.5593 51.9782 16.8343 56.6659C16.5175 58.7139 16.6698 61.1139 17.8205 62.8932C18.7875 64.3878 20.3508 65.3547 21.9688 66C24.7091 67.0935 27.6581 67.4713 30.566 67.7823C33.3764 68.0827 36.804 68.86 37.0517 72.2747C37.1348 73.4219 36.9174 74.5889 36.8841 75.7365C36.8495 76.925 36.8828 78.1237 37.0688 79.3003C37.4809 81.9048 38.7345 83.9251 40.233 86.0246C40.7975 86.816 41.333 87.6315 41.8051 88.4826C41.8931 88.641 41.9793 88.8007 42.0585 88.963C42.1797 89.2898 42.3122 89.6122 42.4584 89.9285C42.6693 90.3846 42.9397 90.1572 43.3702 90.0552C45.4743 89.5586 47.5312 88.8649 49.508 87.9869C53.3912 86.2617 56.9536 83.824 59.9814 80.8324C66.1564 74.7305 69.9354 66.4222 70.4609 57.7313C70.5318 56.5608 70.5528 55.3832 70.4999 54.2119C68.9969 54.0553 67.5154 53.8868 66.0011 53.9114C63.6637 53.9114 61.3076 54.284 59.0438 54.8466C57.0311 55.3467 55.0311 56.0202 53.1641 56.9325C52.8079 57.1067 52.5367 56.8845 52.1665 56.7442C51.9136 56.6479 51.6607 56.552 51.4078 56.4561C51.2919 56.4121 51.3107 54.7164 51.291 54.4903C51.039 51.548 50.2746 47.7836 47.9832 45.6718C61.5347 40.3256 73.5613 30.4333 81.7792 18.3602C82.2014 17.7395 82.6171 17.1118 82.9999 16.4648V16.4652ZM35.8926 52.6838C34.0279 52.6367 34.1005 49.8633 35.9666 49.9183C37.8336 49.9654 37.757 52.7308 35.8926 52.6838C36.6977 52.704 35.0876 52.6635 35.8926 52.6838Z" fill="#763DEF"/>
<path d="M65.8436 37.8848C62.5629 40.3639 58.8425 42.7616 54.6859 44.8695C56.0646 47.3987 56.9707 50.2218 57.2792 53.227C57.4337 53.183 57.5912 53.139 57.7487 53.0955C60.1372 52.4344 63.1129 51.881 66.384 51.881C67.6087 51.8643 69.1685 51.9655 70.3595 52.0935C69.8659 46.9571 68.2829 42.144 65.8436 37.8848Z" fill="#00F161"/>
<path d="M18.3986 79.3372C18.2222 79.3671 18.0687 79.4793 17.9383 79.6741C17.8153 79.858 17.7733 80.0401 17.8131 80.22C17.8534 80.4004 17.9776 80.5609 18.1877 80.703L18.9709 81.2326L19.7694 80.0401L18.9866 79.5101C18.7713 79.3645 18.5758 79.3069 18.399 79.3368L18.3986 79.3372Z" fill="#00F161"/>
<path d="M12.4139 36.6083C12.2394 36.4728 12.0613 36.4196 11.8797 36.4477C11.6981 36.4759 11.5305 36.5911 11.3761 36.7926L10.8003 37.5443L11.9335 38.4214L12.5093 37.6697C12.6673 37.4634 12.7373 37.2712 12.7189 37.0913C12.7005 36.9122 12.5986 36.7512 12.4139 36.6083Z" fill="#00F161"/>
<path d="M38.3517 86.8687C38.3044 86.8014 38.2545 86.7337 38.2073 86.6695C36.2952 84.1028 35.1043 81.6919 34.896 77.7894C22.8426 77.5906 13.1306 67.7119 13.1306 55.5473C13.1306 44.2488 21.5108 34.9235 32.36 33.4935C32.0848 32.6235 31.8301 31.6997 31.5987 30.721C30.9446 27.9186 30.4816 24.4379 30.6155 20.4043C13.3384 22.6912 0 37.5509 0 55.5473C0 75.1286 15.7908 91 35.2653 91C37.0062 91 38.714 90.8716 40.388 90.6257C39.9084 89.5669 39.2005 88.1197 38.4659 87.0306C38.4291 86.9765 38.3924 86.9224 38.3521 86.8687H38.3517ZM22.1343 26.2251L22.8584 27.5768L20.6742 28.7596L21.2049 29.7498L23.1319 28.7064L23.8197 29.9891L21.8923 31.0329L22.4782 32.1264L24.6624 30.9436L25.3865 32.2958L21.5235 34.3878L18.2708 28.3171L22.1338 26.2251H22.1343ZM16.6129 29.4238L17.5891 30.6049L15.6806 32.199L16.3955 33.0642L18.0791 31.6579L19.0054 32.7787L17.3218 34.1854L18.1111 35.1404L20.0192 33.5468L20.9953 34.7278L17.6202 37.5469L13.2369 32.243L16.6121 29.4238H16.6129ZM10.2069 35.6894C10.5434 35.2508 10.9035 34.9376 11.289 34.7498C11.674 34.5624 12.0586 34.4934 12.4414 34.5431C12.8252 34.5928 13.1813 34.745 13.5099 34.9996C13.8801 35.286 14.1273 35.6397 14.2507 36.0606C14.3745 36.4816 14.3452 36.9342 14.1623 37.4181L17.2259 37.8271L15.926 39.5246L13.0912 39.0579L12.9661 39.2202L14.9704 40.7721L13.807 42.2909L8.37276 38.0836L10.2069 35.6889V35.6894ZM7.36773 39.7995L8.74511 40.44L7.59394 42.9433L8.68867 43.4526L9.53793 41.6061L10.8536 42.2179L10.0043 44.0645L12.4414 45.1976L11.6412 46.9373L5.41587 44.0429L7.36773 39.7995ZM3.38262 54.0342L6.12118 53.0502L3.58608 51.6175L3.76766 49.4635L8.22662 52.2773L10.3981 52.4621L10.2367 54.3821L8.06517 54.1974L3.19885 56.2168L3.38306 54.0342H3.38262ZM3.27236 56.7587L4.77837 56.5678L5.00721 58.392L10.3063 57.7207L10.5447 59.6223L5.24566 60.2935L5.47187 62.0988L3.96586 62.2892L3.27236 56.7583V56.7587ZM4.87157 65.2425L10.014 63.5868L9.36379 61.5467L10.7534 61.0994L11.9851 64.965L5.45262 67.068L4.87113 65.2425H4.87157ZM6.17106 68.8596L7.51343 68.1259L8.69829 70.3173L9.68144 69.7798L8.63616 67.8465L9.90984 67.1507L10.9551 69.0839L12.0407 68.4905L10.8558 66.2995L12.1977 65.5662L14.2931 69.442L8.26644 72.7353L6.17106 68.8596ZM12.1509 77.6609L15.1244 75.0019C15.4005 74.7551 15.5567 74.4996 15.5926 74.2361C15.6285 73.9726 15.53 73.7096 15.2973 73.4465C15.0645 73.1835 14.8125 73.0533 14.5412 73.0559C14.2699 73.0586 13.9991 73.1809 13.7274 73.4237L10.7547 76.0827L9.48718 74.6505L12.4598 71.9914C12.9297 71.5709 13.4193 71.3123 13.9282 71.2151C14.4371 71.1179 14.9267 71.1662 15.3979 71.3602C15.8691 71.5542 16.29 71.8604 16.6606 72.28C17.0317 72.6988 17.2789 73.147 17.4027 73.6256C17.5265 74.1041 17.5068 74.584 17.3432 75.0666C17.1796 75.5487 16.8602 76.0026 16.3854 76.4271L13.4128 79.0861L12.1514 77.6614L12.1509 77.6609ZM17.1664 81.947C16.7088 81.6374 16.3749 81.296 16.164 80.9213C15.9536 80.5469 15.8613 80.1656 15.8858 79.778C15.9111 79.3901 16.0393 79.0232 16.2712 78.6775C16.5324 78.2878 16.8676 78.0177 17.2771 77.8664C17.6875 77.7155 18.1382 77.7164 18.63 77.8681L18.8405 74.7688L20.6081 75.9648L20.3255 78.8389L20.4952 78.9537L21.9076 76.8441L23.4893 77.9143L19.66 83.6344L17.166 81.947H17.1664ZM29.1008 83.6999C28.8789 84.3404 28.5477 84.8647 28.1071 85.2729C27.6665 85.6815 27.1528 85.9397 26.5657 86.0484C25.9785 86.1566 25.3668 86.099 24.7298 85.876C23.9216 85.5922 23.3169 85.1374 22.9161 84.5102C22.5154 83.8829 22.3653 83.1686 22.4637 82.3684L24.402 83.0476C24.4331 83.3344 24.5289 83.579 24.6891 83.78C24.8496 83.981 25.064 84.1288 25.334 84.2229C25.7505 84.369 26.1347 84.3364 26.486 84.1248C26.8378 83.9133 27.0995 83.5578 27.2727 83.0595C27.4477 82.5545 27.4631 82.1093 27.3187 81.7236C27.1743 81.3378 26.8938 81.0726 26.4773 80.9261C26.2078 80.832 25.9479 80.8135 25.698 80.8707C25.4478 80.9283 25.222 81.0598 25.0203 81.2652L23.082 80.5861C23.4998 79.8968 24.0594 79.4319 24.7613 79.1908C25.4631 78.9498 26.2178 78.9709 27.0264 79.2546C27.6635 79.4776 28.1784 79.815 28.5714 80.2672C28.9643 80.7189 29.2071 81.2419 29.2994 81.8375C29.3917 82.4327 29.3257 83.0533 29.1016 83.6999H29.1008Z" fill="#00F161"/>
<path d="M45.2622 21.5444C45.6547 25.9286 45.7282 30.7179 45.2321 35.6828C45.2859 35.7096 45.3397 35.7364 45.3896 35.7637C46.8391 33.9022 48.7074 31.7503 51.0461 29.5312C52.1933 28.442 53.4981 27.2984 54.9673 26.145C52.0222 24.1419 48.7547 22.5803 45.2622 21.5449V21.5444Z" fill="#00F161"/>
</g>
<defs>
<clipPath id="clip0_179_2487">
<rect width="83" height="91" fill="white"/>
</clipPath>
</defs>
</svg>
